  0
SECTION
  2
HEADER
  9
$ACADVER
  1
AC1014
  9
$HANDSEED
  5
FFFF
  9
$MEASUREMENT
 70
     1
  0
ENDSEC
  0
SECTION
  2
TABLES
  0
TABLE
  2
VPORT
  5
8
330
0
100
AcDbSymbolTable
 70
     4
  0
VPORT
  5
2E
330
8
100
AcDbSymbolTableRecord
100
AcDbViewportTableRecord
  2
*ACTIVE
 70
     0
 10
0.0
 20
0.0
 11
1.0
 21
1.0
 12
210.0
 22
148.5
 13
0.0
 23
0.0
 14
10.0
 24
10.0
 15
10.0
 25
10.0
 16
0.0
 26
0.0
 36
1.0
 17
0.0
 27
0.0
 37
0.0
 40
341.0
 41
1.24
 42
50.0
 43
0.0
 44
0.0
 50
0.0
 51
0.0
 71
     0
 72
   100
 73
     1
 74
     3
 75
     0
 76
     0
 77
     0
 78
     0
  0
ENDTAB
  0
TABLE
  2
LTYPE
  5
5
330
0
100
AcDbSymbolTable
 70
     1
  0
LTYPE
  5
14
330
5
100
AcDbSymbolTableRecord
100
AcDbLinetypeTableRecord
  2
BYBLOCK
 70
     0
  3

 72
    65
 73
     0
 40
0.0
  0
LTYPE
  5
15
330
5
100
AcDbSymbolTableRecord
100
AcDbLinetypeTableRecord
  2
BYLAYER
 70
     0
  3

 72
    65
 73
     0
 40
0.0
  0
LTYPE
  5
16
330
5
100
AcDbSymbolTableRecord
100
AcDbLinetypeTableRecord
  2
CONTINUOUS
 70
     0
  3
Solid line
 72
    65
 73
     0
 40
0.0
  0
ENDTAB
  0
TABLE
  2
LAYER
  5
2
100
AcDbSymbolTable
 70
2
  0
LAYER
  5
50
100
AcDbSymbolTableRecord
100
AcDbLayerTableRecord
  2
0
 70
0
  6
CONTINUOUS
  0
LAYER
  5
51
100
AcDbSymbolTableRecord
100
AcDbLayerTableRecord
  2
Ebene_1
 70
0
  6
CONTINUOUS
  0
ENDTAB
  0
TABLE
  2
STYLE
  5
3
330
0
100
AcDbSymbolTable
 70
     1
  0
STYLE
  5
11
330
3
100
AcDbSymbolTableRecord
100
AcDbTextStyleTableRecord
  2
STANDARD
 70
     0
 40
0.0
 41
1.0
 50
0.0
 71
     0
 42
2.5
  3
txt
  4

  0
ENDTAB
  0
TABLE
  2
VIEW
  5
6
330
0
100
AcDbSymbolTable
 70
     0
  0
ENDTAB
  0
TABLE
  2
UCS
  5
7
330
0
100
AcDbSymbolTable
 70
     0
  0
ENDTAB
  0
TABLE
  2
APPID
  5
9
330
0
100
AcDbSymbolTable
 70
     2
  0
APPID
  5
12
330
9
100
AcDbSymbolTableRecord
100
AcDbRegAppTableRecord
  2
ACAD
 70
     0
  0
ENDTAB
  0
TABLE
  2
DIMSTYLE
  5
A
330
0
100
AcDbSymbolTable
 70
     1
  0
DIMSTYLE
105
27
330
A
100
AcDbSymbolTableRecord
100
AcDbDimStyleTableRecord
  2
ISO-25
 70
     0
  3

  4

  5

  6

  7

 40
1.0
 41
2.5
 42
0.625
 43
3.75
 44
1.25
 45
0.0
 46
0.0
 47
0.0
 48
0.0
140
2.5
141
2.5
142
0.0
143
0.03937007874016
144
1.0
145
0.0
146
1.0
147
0.625
 71
     0
 72
     0
 73
     0
 74
     0
 75
     0
 76
     0
 77
     1
 78
     8
170
     0
171
     3
172
     1
173
     0
174
     0
175
     0
176
     0
177
     0
178
     0
270
     2
271
     2
272
     2
273
     2
274
     3
340
11
275
     0
280
     0
281
     0
282
     0
283
     0
284
     8
285
     0
286
     0
287
     3
288
     0
  0
ENDTAB
  0
TABLE
  2
BLOCK_RECORD
  5
1
330
0
100
AcDbSymbolTable
 70
     1
  0
BLOCK_RECORD
  5
1F
330
1
100
AcDbSymbolTableRecord
100
AcDbBlockTableRecord
  2
*MODEL_SPACE
  0
BLOCK_RECORD
  5
1B
330
1
100
AcDbSymbolTableRecord
100
AcDbBlockTableRecord
  2
*PAPER_SPACE
  0
ENDTAB
  0
ENDSEC
  0
SECTION
  2
BLOCKS
  0
BLOCK
  5
20
330
1F
100
AcDbEntity
  8
0
100
AcDbBlockBegin
  2
*MODEL_SPACE
 70
     0
 10
0.0
 20
0.0
 30
0.0
  3
*MODEL_SPACE
  1

  0
ENDBLK
  5
21
330
1F
100
AcDbEntity
  8
0
100
AcDbBlockEnd
  0
BLOCK
  5
1C
330
1B
100
AcDbEntity
 67
     1
  8
0
100
AcDbBlockBegin
  2
*PAPER_SPACE
  1

  0
ENDBLK
  5
1D
330
1B
100
AcDbEntity
 67
     1
  8
0
100
AcDbBlockEnd
  0
ENDSEC
  0
SECTION
  2
ENTITIES
  0
LWPOLYLINE
  5
100
100
AcDbEntity
  8
Ebene_1
 62
7
100
AcDbPolyline
 90
36
 70
1
 10
3.684525
 20
293.488095
 30
0.0
 10
35.284526
 20
293.488095
 30
0.0
 10
35.284526
 20
289.488095
 30
0.0
 10
66.884524
 20
289.488095
 30
0.0
 10
66.884524
 20
293.488095
 30
0.0
 10
98.484525
 20
293.488095
 30
0.0
 10
98.484525
 20
289.488095
 30
0.0
 10
130.084524
 20
289.488095
 30
0.0
 10
130.084524
 20
293.488095
 30
0.0
 10
161.684525
 20
293.488095
 30
0.0
 10
161.684525
 20
258.488095
 30
0.0
 10
157.684525
 20
258.488095
 30
0.0
 10
157.684525
 20
223.488095
 30
0.0
 10
161.684525
 20
223.488095
 30
0.0
 10
161.684525
 20
195.488095
 30
0.0
 10
157.684525
 20
195.488095
 30
0.0
 10
157.684525
 20
160.488095
 30
0.0
 10
161.684525
 20
160.488095
 30
0.0
 10
161.684525
 20
125.488095
 30
0.0
 10
130.084524
 20
125.488095
 30
0.0
 10
130.084524
 20
129.488095
 30
0.0
 10
98.484525
 20
129.488095
 30
0.0
 10
98.484525
 20
125.488095
 30
0.0
 10
66.884524
 20
125.488095
 30
0.0
 10
66.884524
 20
129.488095
 30
0.0
 10
35.284526
 20
129.488095
 30
0.0
 10
35.284526
 20
125.488095
 30
0.0
 10
3.684525
 20
125.488095
 30
0.0
 10
3.684525
 20
160.488095
 30
0.0
 10
7.684525
 20
160.488095
 30
0.0
 10
7.684525
 20
195.488095
 30
0.0
 10
3.684525
 20
195.488095
 30
0.0
 10
3.684525
 20
223.488095
 30
0.0
 10
7.684525
 20
223.488095
 30
0.0
 10
7.684525
 20
258.488095
 30
0.0
 10
3.684525
 20
258.488095
 30
0.0
  0
LWPOLYLINE
  5
101
100
AcDbEntity
  8
Ebene_1
 62
7
100
AcDbPolyline
 90
36
 70
1
 10
161.684520
 20
293.488095
 30
0.0
 10
193.284521
 20
293.488095
 30
0.0
 10
193.284521
 20
289.488095
 30
0.0
 10
224.884519
 20
289.488095
 30
0.0
 10
224.884519
 20
293.488095
 30
0.0
 10
256.484521
 20
293.488095
 30
0.0
 10
256.484521
 20
289.488095
 30
0.0
 10
288.084519
 20
289.488095
 30
0.0
 10
288.084519
 20
293.488095
 30
0.0
 10
319.684520
 20
293.488095
 30
0.0
 10
319.684520
 20
258.488095
 30
0.0
 10
315.684520
 20
258.488095
 30
0.0
 10
315.684520
 20
223.488095
 30
0.0
 10
319.684520
 20
223.488095
 30
0.0
 10
319.684520
 20
195.488095
 30
0.0
 10
315.684520
 20
195.488095
 30
0.0
 10
315.684520
 20
160.488095
 30
0.0
 10
319.684520
 20
160.488095
 30
0.0
 10
319.684520
 20
125.488095
 30
0.0
 10
288.084519
 20
125.488095
 30
0.0
 10
288.084519
 20
129.488095
 30
0.0
 10
256.484521
 20
129.488095
 30
0.0
 10
256.484521
 20
125.488095
 30
0.0
 10
224.884519
 20
125.488095
 30
0.0
 10
224.884519
 20
129.488095
 30
0.0
 10
193.284521
 20
129.488095
 30
0.0
 10
193.284521
 20
125.488095
 30
0.0
 10
161.684520
 20
125.488095
 30
0.0
 10
161.684520
 20
160.488095
 30
0.0
 10
165.684520
 20
160.488095
 30
0.0
 10
165.684520
 20
195.488095
 30
0.0
 10
161.684520
 20
195.488095
 30
0.0
 10
161.684520
 20
223.488095
 30
0.0
 10
165.684520
 20
223.488095
 30
0.0
 10
165.684520
 20
258.488095
 30
0.0
 10
161.684520
 20
258.488095
 30
0.0
  0
LWPOLYLINE
  5
102
100
AcDbEntity
  8
Ebene_1
 62
7
100
AcDbPolyline
 90
36
 70
1
 10
323.684520
 20
293.488095
 30
0.0
 10
354.684520
 20
293.488095
 30
0.0
 10
354.684520
 20
289.488095
 30
0.0
 10
389.684520
 20
289.488095
 30
0.0
 10
389.684520
 20
293.488095
 30
0.0
 10
417.684520
 20
293.488095
 30
0.0
 10
417.684520
 20
289.488095
 30
0.0
 10
452.684520
 20
289.488095
 30
0.0
 10
452.684520
 20
293.488095
 30
0.0
 10
483.684520
 20
293.488095
 30
0.0
 10
483.684520
 20
258.488095
 30
0.0
 10
487.684520
 20
258.488095
 30
0.0
 10
487.684520
 20
223.488095
 30
0.0
 10
483.684520
 20
223.488095
 30
0.0
 10
483.684520
 20
195.488095
 30
0.0
 10
487.684520
 20
195.488095
 30
0.0
 10
487.684520
 20
160.488095
 30
0.0
 10
483.684520
 20
160.488095
 30
0.0
 10
483.684520
 20
125.488095
 30
0.0
 10
452.684520
 20
125.488095
 30
0.0
 10
452.684520
 20
129.488095
 30
0.0
 10
417.684520
 20
129.488095
 30
0.0
 10
417.684520
 20
125.488095
 30
0.0
 10
389.684520
 20
125.488095
 30
0.0
 10
389.684520
 20
129.488095
 30
0.0
 10
354.684520
 20
129.488095
 30
0.0
 10
354.684520
 20
125.488095
 30
0.0
 10
323.684520
 20
125.488095
 30
0.0
 10
323.684520
 20
160.488095
 30
0.0
 10
319.684520
 20
160.488095
 30
0.0
 10
319.684520
 20
195.488095
 30
0.0
 10
323.684520
 20
195.488095
 30
0.0
 10
323.684520
 20
223.488095
 30
0.0
 10
319.684520
 20
223.488095
 30
0.0
 10
319.684520
 20
258.488095
 30
0.0
 10
323.684520
 20
258.488095
 30
0.0
  0
LWPOLYLINE
  5
103
100
AcDbEntity
  8
Ebene_1
 62
7
100
AcDbPolyline
 90
36
 70
1
 10
323.684520
 20
125.488090
 30
0.0
 10
354.684520
 20
125.488090
 30
0.0
 10
354.684520
 20
121.488090
 30
0.0
 10
389.684520
 20
121.488090
 30
0.0
 10
389.684520
 20
125.488090
 30
0.0
 10
417.684520
 20
125.488090
 30
0.0
 10
417.684520
 20
121.488090
 30
0.0
 10
452.684520
 20
121.488090
 30
0.0
 10
452.684520
 20
125.488090
 30
0.0
 10
483.684520
 20
125.488090
 30
0.0
 10
483.684520
 20
90.488090
 30
0.0
 10
487.684520
 20
90.488090
 30
0.0
 10
487.684520
 20
55.488090
 30
0.0
 10
483.684520
 20
55.488090
 30
0.0
 10
483.684520
 20
27.488090
 30
0.0
 10
487.684520
 20
27.488090
 30
0.0
 10
487.684520
 20
-7.511910
 30
0.0
 10
483.684520
 20
-7.511910
 30
0.0
 10
483.684520
 20
-42.511910
 30
0.0
 10
452.684520
 20
-42.511910
 30
0.0
 10
452.684520
 20
-38.511910
 30
0.0
 10
417.684520
 20
-38.511910
 30
0.0
 10
417.684520
 20
-42.511910
 30
0.0
 10
389.684520
 20
-42.511910
 30
0.0
 10
389.684520
 20
-38.511910
 30
0.0
 10
354.684520
 20
-38.511910
 30
0.0
 10
354.684520
 20
-42.511910
 30
0.0
 10
323.684520
 20
-42.511910
 30
0.0
 10
323.684520
 20
-7.511910
 30
0.0
 10
319.684520
 20
-7.511910
 30
0.0
 10
319.684520
 20
27.488090
 30
0.0
 10
323.684520
 20
27.488090
 30
0.0
 10
323.684520
 20
55.488090
 30
0.0
 10
319.684520
 20
55.488090
 30
0.0
 10
319.684520
 20
90.488090
 30
0.0
 10
323.684520
 20
90.488090
 30
0.0
  0
LWPOLYLINE
  5
104
100
AcDbEntity
  8
Ebene_1
 62
7
100
AcDbPolyline
 90
36
 70
1
 10
7.684525
 20
121.488090
 30
0.0
 10
35.284526
 20
121.488090
 30
0.0
 10
35.284526
 20
125.488090
 30
0.0
 10
66.884524
 20
125.488090
 30
0.0
 10
66.884524
 20
121.488090
 30
0.0
 10
98.484525
 20
121.488090
 30
0.0
 10
98.484525
 20
125.488090
 30
0.0
 10
130.084524
 20
125.488090
 30
0.0
 10
130.084524
 20
121.488090
 30
0.0
 10
157.684525
 20
121.488090
 30
0.0
 10
157.684525
 20
90.488090
 30
0.0
 10
161.684525
 20
90.488090
 30
0.0
 10
161.684525
 20
55.488090
 30
0.0
 10
157.684525
 20
55.488090
 30
0.0
 10
157.684525
 20
27.488090
 30
0.0
 10
161.684525
 20
27.488090
 30
0.0
 10
161.684525
 20
-7.511910
 30
0.0
 10
157.684525
 20
-7.511910
 30
0.0
 10
157.684525
 20
-38.511910
 30
0.0
 10
130.084524
 20
-38.511910
 30
0.0
 10
130.084524
 20
-42.511910
 30
0.0
 10
98.484525
 20
-42.511910
 30
0.0
 10
98.484525
 20
-38.511910
 30
0.0
 10
66.884524
 20
-38.511910
 30
0.0
 10
66.884524
 20
-42.511910
 30
0.0
 10
35.284526
 20
-42.511910
 30
0.0
 10
35.284526
 20
-38.511910
 30
0.0
 10
7.684525
 20
-38.511910
 30
0.0
 10
7.684525
 20
-7.511910
 30
0.0
 10
3.684525
 20
-7.511910
 30
0.0
 10
3.684525
 20
27.488090
 30
0.0
 10
7.684525
 20
27.488090
 30
0.0
 10
7.684525
 20
55.488090
 30
0.0
 10
3.684525
 20
55.488090
 30
0.0
 10
3.684525
 20
90.488090
 30
0.0
 10
7.684525
 20
90.488090
 30
0.0
  0
SPLINE
  5
105
100
AcDbEntity
  8
Ebene_1
 62
6
100
AcDbSpline
 70
8
 71
3
 72
8
 73
4
 74
0
 40
0
 40
0
 40
0
 40
0
 40
1
 40
1
 40
1
 40
1
 10
134.862400
 20
41.488090
 30
0.0
 10
134.862393
 20
12.671054
 30
0.0
 10
111.501566
 20
-10.689767
 30
0.0
 10
82.684525
 20
-10.689770
 30
0.0
  0
SPLINE
  5
106
100
AcDbEntity
  8
Ebene_1
 62
6
100
AcDbSpline
 70
8
 71
3
 72
8
 73
4
 74
0
 40
0
 40
0
 40
0
 40
0
 40
1
 40
1
 40
1
 40
1
 10
82.684525
 20
-10.689770
 30
0.0
 10
53.867483
 20
-10.689769
 30
0.0
 10
30.506652
 20
12.671052
 30
0.0
 10
30.506645
 20
41.488090
 30
0.0
  0
SPLINE
  5
107
100
AcDbEntity
  8
Ebene_1
 62
6
100
AcDbSpline
 70
8
 71
3
 72
8
 73
4
 74
0
 40
0
 40
0
 40
0
 40
0
 40
1
 40
1
 40
1
 40
1
 10
30.506645
 20
41.488090
 30
0.0
 10
30.506643
 20
55.326523
 30
0.0
 10
36.003939
 20
68.598171
 30
0.0
 10
45.789190
 20
78.383422
 30
0.0
  0
SPLINE
  5
108
100
AcDbEntity
  8
Ebene_1
 62
6
100
AcDbSpline
 70
8
 71
3
 72
8
 73
4
 74
0
 40
0
 40
0
 40
0
 40
0
 40
1
 40
1
 40
1
 40
1
 10
45.789190
 20
78.383422
 30
0.0
 10
55.574441
 20
88.168673
 30
0.0
 10
68.846090
 20
93.665970
 30
0.0
 10
82.684525
 20
93.665970
 30
0.0
  0
SPLINE
  5
109
100
AcDbEntity
  8
Ebene_1
 62
6
100
AcDbSpline
 70
8
 71
3
 72
8
 73
4
 74
0
 40
0
 40
0
 40
0
 40
0
 40
1
 40
1
 40
1
 40
1
 10
82.684525
 20
93.665970
 30
0.0
 10
96.522960
 20
93.665968
 30
0.0
 10
109.794607
 20
88.168671
 30
0.0
 10
119.579857
 20
78.383420
 30
0.0
  0
SPLINE
  5
10a
100
AcDbEntity
  8
Ebene_1
 62
6
100
AcDbSpline
 70
8
 71
3
 72
8
 73
4
 74
0
 40
0
 40
0
 40
0
 40
0
 40
1
 40
1
 40
1
 40
1
 10
119.579857
 20
78.383420
 30
0.0
 10
129.365107
 20
68.598170
 30
0.0
 10
134.862402
 20
55.326523
 30
0.0
 10
134.862400
 20
41.488090
 30
0.0
  0
LWPOLYLINE
  5
10b
100
AcDbEntity
  8
Ebene_1
 62
7
100
AcDbPolyline
 90
36
 70
1
 10
165.684520
 20
121.488090
 30
0.0
 10
193.284521
 20
121.488090
 30
0.0
 10
193.284521
 20
125.488090
 30
0.0
 10
224.884519
 20
125.488090
 30
0.0
 10
224.884519
 20
121.488090
 30
0.0
 10
256.484521
 20
121.488090
 30
0.0
 10
256.484521
 20
125.488090
 30
0.0
 10
288.084519
 20
125.488090
 30
0.0
 10
288.084519
 20
121.488090
 30
0.0
 10
315.684520
 20
121.488090
 30
0.0
 10
315.684520
 20
90.488090
 30
0.0
 10
319.684520
 20
90.488090
 30
0.0
 10
319.684520
 20
55.488090
 30
0.0
 10
315.684520
 20
55.488090
 30
0.0
 10
315.684520
 20
27.488090
 30
0.0
 10
319.684520
 20
27.488090
 30
0.0
 10
319.684520
 20
-7.511910
 30
0.0
 10
315.684520
 20
-7.511910
 30
0.0
 10
315.684520
 20
-38.511910
 30
0.0
 10
288.084519
 20
-38.511910
 30
0.0
 10
288.084519
 20
-42.511910
 30
0.0
 10
256.484521
 20
-42.511910
 30
0.0
 10
256.484521
 20
-38.511910
 30
0.0
 10
224.884519
 20
-38.511910
 30
0.0
 10
224.884519
 20
-42.511910
 30
0.0
 10
193.284521
 20
-42.511910
 30
0.0
 10
193.284521
 20
-38.511910
 30
0.0
 10
165.684520
 20
-38.511910
 30
0.0
 10
165.684520
 20
-7.511910
 30
0.0
 10
161.684520
 20
-7.511910
 30
0.0
 10
161.684520
 20
27.488090
 30
0.0
 10
165.684520
 20
27.488090
 30
0.0
 10
165.684520
 20
55.488090
 30
0.0
 10
161.684520
 20
55.488090
 30
0.0
 10
161.684520
 20
90.488090
 30
0.0
 10
165.684520
 20
90.488090
 30
0.0
  0
SPLINE
  5
10c
100
AcDbEntity
  8
Ebene_1
 62
4
100
AcDbSpline
 70
8
 71
3
 72
8
 73
4
 74
0
 40
0
 40
0
 40
0
 40
0
 40
1
 40
1
 40
1
 40
1
 10
39.191271
 20
249.496127
 30
0.0
 10
37.706225
 20
249.496127
 30
0.0
 10
36.524939
 20
248.944286
 30
0.0
 10
35.647413
 20
247.840606
 30
0.0
  0
SPLINE
  5
10d
100
AcDbEntity
  8
Ebene_1
 62
4
100
AcDbSpline
 70
8
 71
3
 72
8
 73
4
 74
0
 40
0
 40
0
 40
0
 40
0
 40
1
 40
1
 40
1
 40
1
 10
35.647413
 20
247.840606
 30
0.0
 10
34.776635
 20
246.736926
 30
0.0
 10
34.341246
 20
245.232825
 30
0.0
 10
34.341246
 20
243.328304
 30
0.0
  0
SPLINE
  5
10e
100
AcDbEntity
  8
Ebene_1
 62
4
100
AcDbSpline
 70
8
 71
3
 72
8
 73
4
 74
0
 40
0
 40
0
 40
0
 40
0
 40
1
 40
1
 40
1
 40
1
 10
34.341246
 20
243.328304
 30
0.0
 10
34.341246
 20
241.430512
 30
0.0
 10
34.776635
 20
239.929776
 30
0.0
 10
35.647413
 20
238.826096
 30
0.0
  0
SPLINE
  5
10f
100
AcDbEntity
  8
Ebene_1
 62
4
100
AcDbSpline
 70
8
 71
3
 72
8
 73
4
 74
0
 40
0
 40
0
 40
0
 40
0
 40
1
 40
1
 40
1
 40
1
 10
35.647413
 20
238.826096
 30
0.0
 10
36.524939
 20
237.722415
 30
0.0
 10
37.706225
 20
237.170575
 30
0.0
 10
39.191271
 20
237.170575
 30
0.0
  0
SPLINE
  5
110
100
AcDbEntity
  8
Ebene_1
 62
4
100
AcDbSpline
 70
8
 71
3
 72
8
 73
4
 74
0
 40
0
 40
0
 40
0
 40
0
 40
1
 40
1
 40
1
 40
1
 10
39.191271
 20
237.170575
 30
0.0
 10
40.676318
 20
237.170575
 30
0.0
 10
41.850853
 20
237.722415
 30
0.0
 10
42.714878
 20
238.826096
 30
0.0
  0
SPLINE
  5
111
100
AcDbEntity
  8
Ebene_1
 62
4
100
AcDbSpline
 70
8
 71
3
 72
8
 73
4
 74
0
 40
0
 40
0
 40
0
 40
0
 40
1
 40
1
 40
1
 40
1
 10
42.714878
 20
238.826096
 30
0.0
 10
43.585656
 20
239.929776
 30
0.0
 10
44.021044
 20
241.430512
 30
0.0
 10
44.021044
 20
243.328304
 30
0.0
  0
SPLINE
  5
112
100
AcDbEntity
  8
Ebene_1
 62
4
100
AcDbSpline
 70
8
 71
3
 72
8
 73
4
 74
0
 40
0
 40
0
 40
0
 40
0
 40
1
 40
1
 40
1
 40
1
 10
44.021044
 20
243.328304
 30
0.0
 10
44.021044
 20
245.232825
 30
0.0
 10
43.585656
 20
246.736926
 30
0.0
 10
42.714878
 20
247.840606
 30
0.0
  0
SPLINE
  5
113
100
AcDbEntity
  8
Ebene_1
 62
4
100
AcDbSpline
 70
8
 71
3
 72
8
 73
4
 74
0
 40
0
 40
0
 40
0
 40
0
 40
1
 40
1
 40
1
 40
1
 10
42.714878
 20
247.840606
 30
0.0
 10
41.850853
 20
248.944286
 30
0.0
 10
40.676318
 20
249.496127
 30
0.0
 10
39.191271
 20
249.496127
 30
0.0
  0
LWPOLYLINE
  5
114
100
AcDbEntity
  8
Ebene_1
 62
6
100
AcDbPolyline
 90
1
 70
1
 10
134.862400
 20
41.488090
 30
0.0
  0
SPLINE
  5
115
100
AcDbEntity
  8
Ebene_1
 62
4
100
AcDbSpline
 70
8
 71
3
 72
8
 73
4
 74
0
 40
0
 40
0
 40
0
 40
0
 40
1
 40
1
 40
1
 40
1
 10
39.191271
 20
251.151647
 30
0.0
 10
41.310836
 20
251.151647
 30
0.0
 10
43.005138
 20
250.441657
 30
0.0
 10
44.274175
 20
249.021678
 30
0.0
  0
SPLINE
  5
116
100
AcDbEntity
  8
Ebene_1
 62
4
100
AcDbSpline
 70
8
 71
3
 72
8
 73
4
 74
0
 40
0
 40
0
 40
0
 40
0
 40
1
 40
1
 40
1
 40
1
 10
44.274175
 20
249.021678
 30
0.0
 10
45.543217
 20
247.608429
 30
0.0
 10
46.177738
 20
245.710638
 30
0.0
 10
46.177738
 20
243.328304
 30
0.0
  0
SPLINE
  5
117
100
AcDbEntity
  8
Ebene_1
 62
4
100
AcDbSpline
 70
8
 71
3
 72
8
 73
4
 74
0
 40
0
 40
0
 40
0
 40
0
 40
1
 40
1
 40
1
 40
1
 10
46.177738
 20
243.328304
 30
0.0
 10
46.177738
 20
240.952699
 30
0.0
 10
45.543217
 20
239.054907
 30
0.0
 10
44.274175
 20
237.634929
 30
0.0
  0
SPLINE
  5
118
100
AcDbEntity
  8
Ebene_1
 62
4
100
AcDbSpline
 70
8
 71
3
 72
8
 73
4
 74
0
 40
0
 40
0
 40
0
 40
0
 40
1
 40
1
 40
1
 40
1
 10
44.274175
 20
237.634929
 30
0.0
 10
43.005138
 20
236.221680
 30
0.0
 10
41.310836
 20
235.515055
 30
0.0
 10
39.191271
 20
235.515055
 30
0.0
  0
SPLINE
  5
119
100
AcDbEntity
  8
Ebene_1
 62
4
100
AcDbSpline
 70
8
 71
3
 72
8
 73
4
 74
0
 40
0
 40
0
 40
0
 40
0
 40
1
 40
1
 40
1
 40
1
 10
39.191271
 20
235.515055
 30
0.0
 10
37.064958
 20
235.515055
 30
0.0
 10
35.363906
 20
236.221680
 30
0.0
 10
34.088115
 20
237.634929
 30
0.0
  0
SPLINE
  5
11a
100
AcDbEntity
  8
Ebene_1
 62
4
100
AcDbSpline
 70
8
 71
3
 72
8
 73
4
 74
0
 40
0
 40
0
 40
0
 40
0
 40
1
 40
1
 40
1
 40
1
 10
34.088115
 20
237.634929
 30
0.0
 10
32.819077
 20
239.048178
 30
0.0
 10
32.184558
 20
240.945969
 30
0.0
 10
32.184558
 20
243.328304
 30
0.0
  0
SPLINE
  5
11b
100
AcDbEntity
  8
Ebene_1
 62
4
100
AcDbSpline
 70
8
 71
3
 72
8
 73
4
 74
0
 40
0
 40
0
 40
0
 40
0
 40
1
 40
1
 40
1
 40
1
 10
32.184558
 20
243.328304
 30
0.0
 10
32.184558
 20
245.710638
 30
0.0
 10
32.819077
 20
247.608429
 30
0.0
 10
34.088115
 20
249.021678
 30
0.0
  0
SPLINE
  5
11c
100
AcDbEntity
  8
Ebene_1
 62
4
100
AcDbSpline
 70
8
 71
3
 72
8
 73
4
 74
0
 40
0
 40
0
 40
0
 40
0
 40
1
 40
1
 40
1
 40
1
 10
34.088115
 20
249.021678
 30
0.0
 10
35.363906
 20
250.441657
 30
0.0
 10
37.064958
 20
251.151647
 30
0.0
 10
39.191271
 20
251.151647
 30
0.0
  0
LWPOLYLINE
  5
11d
100
AcDbEntity
  8
Ebene_1
 62
4
100
AcDbPolyline
 90
1
 70
1
 10
39.191271
 20
249.496127
 30
0.0
  0
LWPOLYLINE
  5
11e
100
AcDbEntity
  8
Ebene_1
 62
4
100
AcDbPolyline
 90
1
 70
1
 10
39.191271
 20
251.151647
 30
0.0
  0
SPLINE
  5
11f
100
AcDbEntity
  8
Ebene_1
 62
4
100
AcDbSpline
 70
8
 71
3
 72
8
 73
4
 74
0
 40
0
 40
0
 40
0
 40
0
 40
1
 40
1
 40
1
 40
1
 10
51.139138
 20
239.532720
 30
0.0
 10
51.139138
 20
238.610744
 30
0.0
 10
51.264017
 20
238.018525
 30
0.0
 10
51.513773
 20
237.756064
 30
0.0
  0
SPLINE
  5
120
100
AcDbEntity
  8
Ebene_1
 62
4
100
AcDbSpline
 70
8
 71
3
 72
8
 73
4
 74
0
 40
0
 40
0
 40
0
 40
0
 40
1
 40
1
 40
1
 40
1
 10
51.513773
 20
237.756064
 30
0.0
 10
51.770283
 20
237.493603
 30
0.0
 10
52.286674
 20
237.362373
 30
0.0
 10
53.062948
 20
237.362373
 30
0.0
  0
LWPOLYLINE
  5
121
100
AcDbEntity
  8
Ebene_1
 62
4
100
AcDbPolyline
 90
6
 70
0
 10
51.139138
 20
250.323886
 30
0.0
 10
51.139138
 20
247.113792
 30
0.0
 10
54.976634
 20
247.113792
 30
0.0
 10
54.976634
 20
245.670259
 30
0.0
 10
51.139138
 20
245.670259
 30
0.0
 10
51.139138
 20
239.532720
 30
0.0
  0
SPLINE
  5
122
100
AcDbEntity
  8
Ebene_1
 62
4
100
AcDbSpline
 70
8
 71
3
 72
8
 73
4
 74
0
 40
0
 40
0
 40
0
 40
0
 40
1
 40
1
 40
1
 40
1
 10
53.062948
 20
235.807799
 30
0.0
 10
51.625156
 20
235.807799
 30
0.0
 10
50.632876
 20
236.073625
 30
0.0
 10
50.086109
 20
236.605276
 30
0.0
  0
SPLINE
  5
123
100
AcDbEntity
  8
Ebene_1
 62
4
100
AcDbSpline
 70
8
 71
3
 72
8
 73
4
 74
0
 40
0
 40
0
 40
0
 40
0
 40
1
 40
1
 40
1
 40
1
 10
50.086109
 20
236.605276
 30
0.0
 10
49.539341
 20
237.143656
 30
0.0
 10
49.265958
 20
238.119471
 30
0.0
 10
49.265958
 20
239.532720
 30
0.0
  0
LWPOLYLINE
  5
124
100
AcDbEntity
  8
Ebene_1
 62
4
100
AcDbPolyline
 90
4
 70
0
 10
53.062948
 20
237.362373
 30
0.0
 10
54.976634
 20
237.362373
 30
0.0
 10
54.976634
 20
235.807799
 30
0.0
 10
53.062948
 20
235.807799
 30
0.0
  0
LWPOLYLINE
  5
125
100
AcDbEntity
  8
Ebene_1
 62
4
100
AcDbPolyline
 90
7
 70
0
 10
49.265958
 20
239.532720
 30
0.0
 10
49.265958
 20
245.670259
 30
0.0
 10
47.899039
 20
245.670259
 30
0.0
 10
47.899039
 20
247.113792
 30
0.0
 10
49.265958
 20
247.113792
 30
0.0
 10
49.265958
 20
250.323886
 30
0.0
 10
51.139138
 20
250.323886
 30
0.0
  0
SPLINE
  5
126
100
AcDbEntity
  8
Ebene_1
 62
4
100
AcDbSpline
 70
8
 71
3
 72
8
 73
4
 74
0
 40
0
 40
0
 40
0
 40
0
 40
1
 40
1
 40
1
 40
1
 10
59.279892
 20
239.532720
 30
0.0
 10
59.279892
 20
238.610744
 30
0.0
 10
59.404770
 20
238.018525
 30
0.0
 10
59.654527
 20
237.756064
 30
0.0
  0
SPLINE
  5
127
100
AcDbEntity
  8
Ebene_1
 62
4
100
AcDbSpline
 70
8
 71
3
 72
8
 73
4
 74
0
 40
0
 40
0
 40
0
 40
0
 40
1
 40
1
 40
1
 40
1
 10
59.654527
 20
237.756064
 30
0.0
 10
59.911036
 20
237.493603
 30
0.0
 10
60.427428
 20
237.362373
 30
0.0
 10
61.203701
 20
237.362373
 30
0.0
  0
LWPOLYLINE
  5
128
100
AcDbEntity
  8
Ebene_1
 62
4
100
AcDbPolyline
 90
6
 70
0
 10
59.279892
 20
250.323886
 30
0.0
 10
59.279892
 20
247.113792
 30
0.0
 10
63.117381
 20
247.113792
 30
0.0
 10
63.117381
 20
245.670259
 30
0.0
 10
59.279892
 20
245.670259
 30
0.0
 10
59.279892
 20
239.532720
 30
0.0
  0
SPLINE
  5
129
100
AcDbEntity
  8
Ebene_1
 62
4
100
AcDbSpline
 70
8
 71
3
 72
8
 73
4
 74
0
 40
0
 40
0
 40
0
 40
0
 40
1
 40
1
 40
1
 40
1
 10
61.203701
 20
235.807799
 30
0.0
 10
59.765905
 20
235.807799
 30
0.0
 10
58.773624
 20
236.073625
 30
0.0
 10
58.226856
 20
236.605276
 30
0.0
  0
SPLINE
  5
12a
100
AcDbEntity
  8
Ebene_1
 62
4
100
AcDbSpline
 70
8
 71
3
 72
8
 73
4
 74
0
 40
0
 40
0
 40
0
 40
0
 40
1
 40
1
 40
1
 40
1
 10
58.226856
 20
236.605276
 30
0.0
 10
57.680093
 20
237.143656
 30
0.0
 10
57.406711
 20
238.119471
 30
0.0
 10
57.406711
 20
239.532720
 30
0.0
  0
LWPOLYLINE
  5
12b
100
AcDbEntity
  8
Ebene_1
 62
4
100
AcDbPolyline
 90
4
 70
0
 10
61.203701
 20
237.362373
 30
0.0
 10
63.117381
 20
237.362373
 30
0.0
 10
63.117381
 20
235.807799
 30
0.0
 10
61.203701
 20
235.807799
 30
0.0
  0
LWPOLYLINE
  5
12c
100
AcDbEntity
  8
Ebene_1
 62
4
100
AcDbPolyline
 90
7
 70
0
 10
57.406711
 20
239.532720
 30
0.0
 10
57.406711
 20
245.670259
 30
0.0
 10
56.039793
 20
245.670259
 30
0.0
 10
56.039793
 20
247.113792
 30
0.0
 10
57.406711
 20
247.113792
 30
0.0
 10
57.406711
 20
250.323886
 30
0.0
 10
59.279892
 20
250.323886
 30
0.0
  0
SPLINE
  5
12d
100
AcDbEntity
  8
Ebene_1
 62
4
100
AcDbSpline
 70
8
 71
3
 72
8
 73
4
 74
0
 40
0
 40
0
 40
0
 40
0
 40
1
 40
1
 40
1
 40
1
 10
66.711869
 20
241.016632
 30
0.0
 10
66.792871
 20
239.737978
 30
0.0
 10
67.177634
 20
238.762163
 30
0.0
 10
67.866156
 20
238.089187
 30
0.0
  0
SPLINE
  5
12e
100
AcDbEntity
  8
Ebene_1
 62
4
100
AcDbSpline
 70
8
 71
3
 72
8
 73
4
 74
0
 40
0
 40
0
 40
0
 40
0
 40
1
 40
1
 40
1
 40
1
 10
67.866156
 20
238.089187
 30
0.0
 10
68.561426
 20
237.422941
 30
0.0
 10
69.526704
 20
237.089818
 30
0.0
 10
70.761990
 20
237.089818
 30
0.0
  0
SPLINE
  5
12f
100
AcDbEntity
  8
Ebene_1
 62
4
100
AcDbSpline
 70
8
 71
3
 72
8
 73
4
 74
0
 40
0
 40
0
 40
0
 40
0
 40
1
 40
1
 40
1
 40
1
 10
70.761990
 20
237.089818
 30
0.0
 10
71.477511
 20
237.089818
 30
0.0
 10
72.169407
 20
237.177305
 30
0.0
 10
72.837679
 20
237.352279
 30
0.0
  0
SPLINE
  5
130
100
AcDbEntity
  8
Ebene_1
 62
4
100
AcDbSpline
 70
8
 71
3
 72
8
 73
4
 74
0
 40
0
 40
0
 40
0
 40
0
 40
1
 40
1
 40
1
 40
1
 10
72.837679
 20
237.352279
 30
0.0
 10
73.512699
 20
237.527252
 30
0.0
 10
74.180970
 20
237.789713
 30
0.0
 10
74.842493
 20
238.139660
 30
0.0
  0
LWPOLYLINE
  5
131
100
AcDbEntity
  8
Ebene_1
 62
4
100
AcDbPolyline
 90
3
 70
0
 10
75.277880
 20
241.925149
 30
0.0
 10
75.277880
 20
241.016632
 30
0.0
 10
66.711869
 20
241.016632
 30
0.0
  0
SPLINE
  5
132
100
AcDbEntity
  8
Ebene_1
 62
4
100
AcDbSpline
 70
8
 71
3
 72
8
 73
4
 74
0
 40
0
 40
0
 40
0
 40
0
 40
1
 40
1
 40
1
 40
1
 10
74.842493
 20
236.383194
 30
0.0
 10
74.174221
 20
236.100544
 30
0.0
 10
73.489076
 20
235.885192
 30
0.0
 10
72.787056
 20
235.737137
 30
0.0
  0
SPLINE
  5
133
100
AcDbEntity
  8
Ebene_1
 62
4
100
AcDbSpline
 70
8
 71
3
 72
8
 73
4
 74
0
 40
0
 40
0
 40
0
 40
0
 40
1
 40
1
 40
1
 40
1
 10
72.787056
 20
235.737137
 30
0.0
 10
72.085033
 20
235.589082
 30
0.0
 10
71.372886
 20
235.515055
 30
0.0
 10
70.650615
 20
235.515055
 30
0.0
  0
SPLINE
  5
134
100
AcDbEntity
  8
Ebene_1
 62
4
100
AcDbSpline
 70
8
 71
3
 72
8
 73
4
 74
0
 40
0
 40
0
 40
0
 40
0
 40
1
 40
1
 40
1
 40
1
 10
70.650615
 20
235.515055
 30
0.0
 10
68.841559
 20
235.515055
 30
0.0
 10
67.407139
 20
236.039976
 30
0.0
 10
66.347357
 20
237.089818
 30
0.0
  0
SPLINE
  5
135
100
AcDbEntity
  8
Ebene_1
 62
4
100
AcDbSpline
 70
8
 71
3
 72
8
 73
4
 74
0
 40
0
 40
0
 40
0
 40
0
 40
1
 40
1
 40
1
 40
1
 10
66.347357
 20
237.089818
 30
0.0
 10
65.294323
 20
238.139660
 30
0.0
 10
64.767807
 20
239.559639
 30
0.0
 10
64.767807
 20
241.349755
 30
0.0
  0
SPLINE
  5
136
100
AcDbEntity
  8
Ebene_1
 62
4
100
AcDbSpline
 70
8
 71
3
 72
8
 73
4
 74
0
 40
0
 40
0
 40
0
 40
0
 40
1
 40
1
 40
1
 40
1
 10
64.767807
 20
241.349755
 30
0.0
 10
64.767807
 20
243.200438
 30
0.0
 10
65.267322
 20
244.667525
 30
0.0
 10
66.266352
 20
245.751016
 30
0.0
  0
SPLINE
  5
137
100
AcDbEntity
  8
Ebene_1
 62
4
100
AcDbSpline
 70
8
 71
3
 72
8
 73
4
 74
0
 40
0
 40
0
 40
0
 40
0
 40
1
 40
1
 40
1
 40
1
 10
66.266352
 20
245.751016
 30
0.0
 10
67.272136
 20
246.841237
 30
0.0
 10
68.625553
 20
247.386347
 30
0.0
 10
70.326603
 20
247.386347
 30
0.0
  0
SPLINE
  5
138
100
AcDbEntity
  8
Ebene_1
 62
4
100
AcDbSpline
 70
8
 71
3
 72
8
 73
4
 74
0
 40
0
 40
0
 40
0
 40
0
 40
1
 40
1
 40
1
 40
1
 10
70.326603
 20
247.386347
 30
0.0
 10
71.852150
 20
247.386347
 30
0.0
 10
73.057062
 20
246.895075
 30
0.0
 10
73.941337
 20
245.912530
 30
0.0
  0
SPLINE
  5
139
100
AcDbEntity
  8
Ebene_1
 62
4
100
AcDbSpline
 70
8
 71
3
 72
8
 73
4
 74
0
 40
0
 40
0
 40
0
 40
0
 40
1
 40
1
 40
1
 40
1
 10
73.941337
 20
245.912530
 30
0.0
 10
74.832365
 20
244.936716
 30
0.0
 10
75.277880
 20
243.607588
 30
0.0
 10
75.277880
 20
241.925149
 30
0.0
  0
LWPOLYLINE
  5
13a
100
AcDbEntity
  8
Ebene_1
 62
4
100
AcDbPolyline
 90
2
 70
0
 10
74.842493
 20
238.139660
 30
0.0
 10
74.842493
 20
236.383194
 30
0.0
  0
SPLINE
  5
13b
100
AcDbEntity
  8
Ebene_1
 62
4
100
AcDbSpline
 70
8
 71
3
 72
8
 73
4
 74
0
 40
0
 40
0
 40
0
 40
0
 40
1
 40
1
 40
1
 40
1
 10
73.414822
 20
242.470259
 30
0.0
 10
73.401320
 20
243.486453
 30
0.0
 10
73.114437
 20
244.297388
 30
0.0
 10
72.554172
 20
244.903067
 30
0.0
  0
SPLINE
  5
13c
100
AcDbEntity
  8
Ebene_1
 62
4
100
AcDbSpline
 70
8
 71
3
 72
8
 73
4
 74
0
 40
0
 40
0
 40
0
 40
0
 40
1
 40
1
 40
1
 40
1
 10
72.554172
 20
244.903067
 30
0.0
 10
72.000656
 20
245.508745
 30
0.0
 10
71.264883
 20
245.811584
 30
0.0
 10
70.346856
 20
245.811584
 30
0.0
  0
SPLINE
  5
13d
100
AcDbEntity
  8
Ebene_1
 62
4
100
AcDbSpline
 70
8
 71
3
 72
8
 73
4
 74
0
 40
0
 40
0
 40
0
 40
0
 40
1
 40
1
 40
1
 40
1
 10
70.346856
 20
245.811584
 30
0.0
 10
69.307324
 20
245.811584
 30
0.0
 10
68.473673
 20
245.518840
 30
0.0
 10
67.845903
 20
244.933351
 30
0.0
  0
SPLINE
  5
13e
100
AcDbEntity
  8
Ebene_1
 62
4
100
AcDbSpline
 70
8
 71
3
 72
8
 73
4
 74
0
 40
0
 40
0
 40
0
 40
0
 40
1
 40
1
 40
1
 40
1
 10
67.845903
 20
244.933351
 30
0.0
 10
67.224882
 20
244.347862
 30
0.0
 10
66.867121
 20
243.523466
 30
0.0
 10
66.772621
 20
242.460165
 30
0.0
  0
LWPOLYLINE
  5
13f
100
AcDbEntity
  8
Ebene_1
 62
4
100
AcDbPolyline
 90
1
 70
1
 10
75.277880
 20
241.925149
 30
0.0
  0
SPLINE
  5
140
100
AcDbEntity
  8
Ebene_1
 62
4
100
AcDbSpline
 70
8
 71
3
 72
8
 73
4
 74
0
 40
0
 40
0
 40
0
 40
0
 40
1
 40
1
 40
1
 40
1
 10
84.907049
 20
245.377515
 30
0.0
 10
84.697794
 20
245.498650
 30
0.0
 10
84.468288
 20
245.586137
 30
0.0
 10
84.218532
 20
245.639975
 30
0.0
  0
SPLINE
  5
141
100
AcDbEntity
  8
Ebene_1
 62
4
100
AcDbSpline
 70
8
 71
3
 72
8
 73
4
 74
0
 40
0
 40
0
 40
0
 40
0
 40
1
 40
1
 40
1
 40
1
 10
84.218532
 20
245.639975
 30
0.0
 10
83.975524
 20
245.700543
 30
0.0
 10
83.705515
 20
245.730827
 30
0.0
 10
83.408504
 20
245.730827
 30
0.0
  0
SPLINE
  5
142
100
AcDbEntity
  8
Ebene_1
 62
4
100
AcDbSpline
 70
8
 71
3
 72
8
 73
4
 74
0
 40
0
 40
0
 40
0
 40
0
 40
1
 40
1
 40
1
 40
1
 10
83.408504
 20
245.730827
 30
0.0
 10
82.355474
 20
245.730827
 30
0.0
 10
81.545450
 20
245.387609
 30
0.0
 10
80.978432
 20
244.701174
 30
0.0
  0
SPLINE
  5
143
100
AcDbEntity
  8
Ebene_1
 62
4
100
AcDbSpline
 70
8
 71
3
 72
8
 73
4
 74
0
 40
0
 40
0
 40
0
 40
0
 40
1
 40
1
 40
1
 40
1
 10
80.978432
 20
244.701174
 30
0.0
 10
80.418163
 20
244.021468
 30
0.0
 10
80.138029
 20
243.042289
 30
0.0
 10
80.138029
 20
241.763635
 30
0.0
  0
LWPOLYLINE
  5
144
100
AcDbEntity
  8
Ebene_1
 62
4
100
AcDbPolyline
 90
2
 70
0
 10
66.772621
 20
242.460165
 30
0.0
 10
73.414822
 20
242.470259
 30
0.0
  0
SPLINE
  5
145
100
AcDbEntity
  8
Ebene_1
 62
4
100
AcDbSpline
 70
8
 71
3
 72
8
 73
4
 74
0
 40
0
 40
0
 40
0
 40
0
 40
1
 40
1
 40
1
 40
1
 10
80.138029
 20
245.357325
 30
0.0
 10
80.529544
 20
246.043761
 30
0.0
 10
81.039184
 20
246.551857
 30
0.0
 10
81.666950
 20
246.881615
 30
0.0
  0
SPLINE
  5
146
100
AcDbEntity
  8
Ebene_1
 62
4
100
AcDbSpline
 70
8
 71
3
 72
8
 73
4
 74
0
 40
0
 40
0
 40
0
 40
0
 40
1
 40
1
 40
1
 40
1
 10
81.666950
 20
246.881615
 30
0.0
 10
82.294720
 20
247.218103
 30
0.0
 10
83.057494
 20
247.386347
 30
0.0
 10
83.955271
 20
247.386347
 30
0.0
  0
SPLINE
  5
147
100
AcDbEntity
  8
Ebene_1
 62
4
100
AcDbSpline
 70
8
 71
3
 72
8
 73
4
 74
0
 40
0
 40
0
 40
0
 40
0
 40
1
 40
1
 40
1
 40
1
 10
83.955271
 20
247.386347
 30
0.0
 10
84.083528
 20
247.386347
 30
0.0
 10
84.225283
 20
247.376253
 30
0.0
 10
84.380535
 20
247.356063
 30
0.0
  0
SPLINE
  5
148
100
AcDbEntity
  8
Ebene_1
 62
4
100
AcDbSpline
 70
8
 71
3
 72
8
 73
4
 74
0
 40
0
 40
0
 40
0
 40
0
 40
1
 40
1
 40
1
 40
1
 10
84.380535
 20
247.356063
 30
0.0
 10
84.535791
 20
247.342604
 30
0.0
 10
84.707922
 20
247.319050
 30
0.0
 10
84.896926
 20
247.285401
 30
0.0
  0
LWPOLYLINE
  5
149
100
AcDbEntity
  8
Ebene_1
 62
4
100
AcDbPolyline
 90
6
 70
0
 10
80.138029
 20
241.763635
 30
0.0
 10
80.138029
 20
235.807799
 30
0.0
 10
78.264848
 20
235.807799
 30
0.0
 10
78.264848
 20
247.113792
 30
0.0
 10
80.138029
 20
247.113792
 30
0.0
 10
80.138029
 20
245.357325
 30
0.0
  0
LWPOLYLINE
  5
14a
100
AcDbEntity
  8
Ebene_1
 62
4
100
AcDbPolyline
 90
2
 70
0
 10
84.896926
 20
247.285401
 30
0.0
 10
84.907049
 20
245.377515
 30
0.0
  0
SPLINE
  5
14b
100
AcDbEntity
  8
Ebene_1
 62
4
100
AcDbSpline
 70
8
 71
3
 72
8
 73
4
 74
0
 40
0
 40
0
 40
0
 40
0
 40
1
 40
1
 40
1
 40
1
 10
87.185247
 20
247.901174
 30
0.0
 10
87.185247
 20
249.132719
 30
0.0
 10
87.475507
 20
250.041237
 30
0.0
 10
88.056027
 20
250.626726
 30
0.0
  0
SPLINE
  5
14c
100
AcDbEntity
  8
Ebene_1
 62
4
100
AcDbSpline
 70
8
 71
3
 72
8
 73
4
 74
0
 40
0
 40
0
 40
0
 40
0
 40
1
 40
1
 40
1
 40
1
 10
88.056027
 20
250.626726
 30
0.0
 10
88.643296
 20
251.218944
 30
0.0
 10
89.541073
 20
251.515053
 30
0.0
 10
90.749359
 20
251.515053
 30
0.0
  0
LWPOLYLINE
  5
14d
100
AcDbEntity
  8
Ebene_1
 62
4
100
AcDbPolyline
 90
12
 70
0
 10
96.044895
 20
247.113792
 30
0.0
 10
96.044895
 20
235.807799
 30
0.0
 10
94.171714
 20
235.807799
 30
0.0
 10
94.171714
 20
245.670259
 30
0.0
 10
89.058434
 20
245.670259
 30
0.0
 10
89.058434
 20
235.807799
 30
0.0
 10
87.185247
 20
235.807799
 30
0.0
 10
87.185247
 20
245.670259
 30
0.0
 10
85.403194
 20
245.670259
 30
0.0
 10
85.403194
 20
247.113792
 30
0.0
 10
87.185247
 20
247.113792
 30
0.0
 10
87.185247
 20
247.901174
 30
0.0
  0
SPLINE
  5
14e
100
AcDbEntity
  8
Ebene_1
 62
4
100
AcDbSpline
 70
8
 71
3
 72
8
 73
4
 74
0
 40
0
 40
0
 40
0
 40
0
 40
1
 40
1
 40
1
 40
1
 10
90.840487
 20
249.970574
 30
0.0
 10
90.172215
 20
249.970574
 30
0.0
 10
89.706451
 20
249.835979
 30
0.0
 10
89.443192
 20
249.566789
 30
0.0
  0
SPLINE
  5
14f
100
AcDbEntity
  8
Ebene_1
 62
4
100
AcDbSpline
 70
8
 71
3
 72
8
 73
4
 74
0
 40
0
 40
0
 40
0
 40
0
 40
1
 40
1
 40
1
 40
1
 10
89.443192
 20
249.566789
 30
0.0
 10
89.186687
 20
249.297598
 30
0.0
 10
89.058434
 20
248.813056
 30
0.0
 10
89.058434
 20
248.113161
 30
0.0
  0
LWPOLYLINE
  5
150
100
AcDbEntity
  8
Ebene_1
 62
4
100
AcDbPolyline
 90
4
 70
0
 10
90.749359
 20
251.515053
 30
0.0
 10
92.622539
 20
251.515053
 30
0.0
 10
92.622539
 20
249.970574
 30
0.0
 10
90.840487
 20
249.970574
 30
0.0
  0
LWPOLYLINE
  5
151
100
AcDbEntity
  8
Ebene_1
 62
4
100
AcDbPolyline
 90
3
 70
0
 10
89.058434
 20
248.113161
 30
0.0
 10
89.058434
 20
247.113792
 30
0.0
 10
96.044895
 20
247.113792
 30
0.0
  0
LWPOLYLINE
  5
152
100
AcDbEntity
  8
Ebene_1
 62
4
100
AcDbPolyline
 90
4
 70
1
 10
94.171714
 20
251.494864
 30
0.0
 10
96.044895
 20
251.494864
 30
0.0
 10
96.044895
 20
249.142814
 30
0.0
 10
94.171714
 20
249.142814
 30
0.0
  0
LWPOLYLINE
  5
153
100
AcDbEntity
  8
Ebene_1
 62
4
100
AcDbPolyline
 90
4
 70
1
 10
99.963388
 20
251.515053
 30
0.0
 10
101.826446
 20
251.515053
 30
0.0
 10
101.826446
 20
235.807799
 30
0.0
 10
99.963388
 20
235.807799
 30
0.0
  0
SPLINE
  5
154
100
AcDbEntity
  8
Ebene_1
 62
4
100
AcDbSpline
 70
8
 71
3
 72
8
 73
4
 74
0
 40
0
 40
0
 40
0
 40
0
 40
1
 40
1
 40
1
 40
1
 10
107.557375
 20
239.532720
 30
0.0
 10
107.557375
 20
238.610744
 30
0.0
 10
107.682253
 20
238.018525
 30
0.0
 10
107.932009
 20
237.756064
 30
0.0
  0
SPLINE
  5
155
100
AcDbEntity
  8
Ebene_1
 62
4
100
AcDbSpline
 70
8
 71
3
 72
8
 73
4
 74
0
 40
0
 40
0
 40
0
 40
0
 40
1
 40
1
 40
1
 40
1
 10
107.932009
 20
237.756064
 30
0.0
 10
108.188519
 20
237.493603
 30
0.0
 10
108.704910
 20
237.362373
 30
0.0
 10
109.481184
 20
237.362373
 30
0.0
  0
LWPOLYLINE
  5
156
100
AcDbEntity
  8
Ebene_1
 62
4
100
AcDbPolyline
 90
6
 70
0
 10
107.557375
 20
250.323886
 30
0.0
 10
107.557375
 20
247.113792
 30
0.0
 10
111.394864
 20
247.113792
 30
0.0
 10
111.394864
 20
245.670259
 30
0.0
 10
107.557375
 20
245.670259
 30
0.0
 10
107.557375
 20
239.532720
 30
0.0
  0
SPLINE
  5
157
100
AcDbEntity
  8
Ebene_1
 62
4
100
AcDbSpline
 70
8
 71
3
 72
8
 73
4
 74
0
 40
0
 40
0
 40
0
 40
0
 40
1
 40
1
 40
1
 40
1
 10
109.481184
 20
235.807799
 30
0.0
 10
108.043388
 20
235.807799
 30
0.0
 10
107.051106
 20
236.073625
 30
0.0
 10
106.504339
 20
236.605276
 30
0.0
  0
SPLINE
  5
158
100
AcDbEntity
  8
Ebene_1
 62
4
100
AcDbSpline
 70
8
 71
3
 72
8
 73
4
 74
0
 40
0
 40
0
 40
0
 40
0
 40
1
 40
1
 40
1
 40
1
 10
106.504339
 20
236.605276
 30
0.0
 10
105.957571
 20
237.143656
 30
0.0
 10
105.684188
 20
238.119471
 30
0.0
 10
105.684188
 20
239.532720
 30
0.0
  0
LWPOLYLINE
  5
159
100
AcDbEntity
  8
Ebene_1
 62
4
100
AcDbPolyline
 90
4
 70
0
 10
109.481184
 20
237.362373
 30
0.0
 10
111.394864
 20
237.362373
 30
0.0
 10
111.394864
 20
235.807799
 30
0.0
 10
109.481184
 20
235.807799
 30
0.0
  0
LWPOLYLINE
  5
15a
100
AcDbEntity
  8
Ebene_1
 62
4
100
AcDbPolyline
 90
7
 70
0
 10
105.684188
 20
239.532720
 30
0.0
 10
105.684188
 20
245.670259
 30
0.0
 10
104.317275
 20
245.670259
 30
0.0
 10
104.317275
 20
247.113792
 30
0.0
 10
105.684188
 20
247.113792
 30
0.0
 10
105.684188
 20
250.323886
 30
0.0
 10
107.557375
 20
250.323886
 30
0.0
  0
SPLINE
  5
15b
100
AcDbEntity
  8
Ebene_1
 62
4
100
AcDbSpline
 70
8
 71
3
 72
8
 73
4
 74
0
 40
0
 40
0
 40
0
 40
0
 40
1
 40
1
 40
1
 40
1
 10
114.989358
 20
241.016632
 30
0.0
 10
115.070360
 20
239.737978
 30
0.0
 10
115.455120
 20
238.762163
 30
0.0
 10
116.143638
 20
238.089187
 30
0.0
  0
SPLINE
  5
15c
100
AcDbEntity
  8
Ebene_1
 62
4
100
AcDbSpline
 70
8
 71
3
 72
8
 73
4
 74
0
 40
0
 40
0
 40
0
 40
0
 40
1
 40
1
 40
1
 40
1
 10
116.143638
 20
238.089187
 30
0.0
 10
116.838913
 20
237.422941
 30
0.0
 10
117.804193
 20
237.089818
 30
0.0
 10
119.039479
 20
237.089818
 30
0.0
  0
SPLINE
  5
15d
100
AcDbEntity
  8
Ebene_1
 62
4
100
AcDbSpline
 70
8
 71
3
 72
8
 73
4
 74
0
 40
0
 40
0
 40
0
 40
0
 40
1
 40
1
 40
1
 40
1
 10
119.039479
 20
237.089818
 30
0.0
 10
119.755000
 20
237.089818
 30
0.0
 10
120.446896
 20
237.177305
 30
0.0
 10
121.115168
 20
237.352279
 30
0.0
  0
SPLINE
  5
15e
100
AcDbEntity
  8
Ebene_1
 62
4
100
AcDbSpline
 70
8
 71
3
 72
8
 73
4
 74
0
 40
0
 40
0
 40
0
 40
0
 40
1
 40
1
 40
1
 40
1
 10
121.115168
 20
237.352279
 30
0.0
 10
121.790188
 20
237.527252
 30
0.0
 10
122.458459
 20
237.789713
 30
0.0
 10
123.119982
 20
238.139660
 30
0.0
  0
LWPOLYLINE
  5
15f
100
AcDbEntity
  8
Ebene_1
 62
4
100
AcDbPolyline
 90
3
 70
0
 10
123.555368
 20
241.925149
 30
0.0
 10
123.555368
 20
241.016632
 30
0.0
 10
114.989358
 20
241.016632
 30
0.0
  0
SPLINE
  5
160
100
AcDbEntity
  8
Ebene_1
 62
4
100
AcDbSpline
 70
8
 71
3
 72
8
 73
4
 74
0
 40
0
 40
0
 40
0
 40
0
 40
1
 40
1
 40
1
 40
1
 10
123.119982
 20
236.383194
 30
0.0
 10
122.451710
 20
236.100544
 30
0.0
 10
121.766563
 20
235.885192
 30
0.0
 10
121.064539
 20
235.737137
 30
0.0
  0
SPLINE
  5
161
100
AcDbEntity
  8
Ebene_1
 62
4
100
AcDbSpline
 70
8
 71
3
 72
8
 73
4
 74
0
 40
0
 40
0
 40
0
 40
0
 40
1
 40
1
 40
1
 40
1
 10
121.064539
 20
235.737137
 30
0.0
 10
120.362519
 20
235.589082
 30
0.0
 10
119.650374
 20
235.515055
 30
0.0
 10
118.928104
 20
235.515055
 30
0.0
  0
SPLINE
  5
162
100
AcDbEntity
  8
Ebene_1
 62
4
100
AcDbSpline
 70
8
 71
3
 72
8
 73
4
 74
0
 40
0
 40
0
 40
0
 40
0
 40
1
 40
1
 40
1
 40
1
 10
118.928104
 20
235.515055
 30
0.0
 10
117.119048
 20
235.515055
 30
0.0
 10
115.684628
 20
236.039976
 30
0.0
 10
114.624846
 20
237.089818
 30
0.0
  0
SPLINE
  5
163
100
AcDbEntity
  8
Ebene_1
 62
4
100
AcDbSpline
 70
8
 71
3
 72
8
 73
4
 74
0
 40
0
 40
0
 40
0
 40
0
 40
1
 40
1
 40
1
 40
1
 10
114.624846
 20
237.089818
 30
0.0
 10
113.571812
 20
238.139660
 30
0.0
 10
113.045296
 20
239.559639
 30
0.0
 10
113.045296
 20
241.349755
 30
0.0
  0
SPLINE
  5
164
100
AcDbEntity
  8
Ebene_1
 62
4
100
AcDbSpline
 70
8
 71
3
 72
8
 73
4
 74
0
 40
0
 40
0
 40
0
 40
0
 40
1
 40
1
 40
1
 40
1
 10
113.045296
 20
241.349755
 30
0.0
 10
113.045296
 20
243.200438
 30
0.0
 10
113.544811
 20
244.667525
 30
0.0
 10
114.543841
 20
245.751016
 30
0.0
  0
SPLINE
  5
165
100
AcDbEntity
  8
Ebene_1
 62
4
100
AcDbSpline
 70
8
 71
3
 72
8
 73
4
 74
0
 40
0
 40
0
 40
0
 40
0
 40
1
 40
1
 40
1
 40
1
 10
114.543841
 20
245.751016
 30
0.0
 10
115.549621
 20
246.841237
 30
0.0
 10
116.903037
 20
247.386347
 30
0.0
 10
118.604092
 20
247.386347
 30
0.0
  0
SPLINE
  5
166
100
AcDbEntity
  8
Ebene_1
 62
4
100
AcDbSpline
 70
8
 71
3
 72
8
 73
4
 74
0
 40
0
 40
0
 40
0
 40
0
 40
1
 40
1
 40
1
 40
1
 10
118.604092
 20
247.386347
 30
0.0
 10
120.129639
 20
247.386347
 30
0.0
 10
121.334550
 20
246.895075
 30
0.0
 10
122.218826
 20
245.912530
 30
0.0
  0
SPLINE
  5
167
100
AcDbEntity
  8
Ebene_1
 62
4
100
AcDbSpline
 70
8
 71
3
 72
8
 73
4
 74
0
 40
0
 40
0
 40
0
 40
0
 40
1
 40
1
 40
1
 40
1
 10
122.218826
 20
245.912530
 30
0.0
 10
123.109854
 20
244.936716
 30
0.0
 10
123.555368
 20
243.607588
 30
0.0
 10
123.555368
 20
241.925149
 30
0.0
  0
LWPOLYLINE
  5
168
100
AcDbEntity
  8
Ebene_1
 62
4
100
AcDbPolyline
 90
2
 70
0
 10
123.119982
 20
238.139660
 30
0.0
 10
123.119982
 20
236.383194
 30
0.0
  0
SPLINE
  5
169
100
AcDbEntity
  8
Ebene_1
 62
4
100
AcDbSpline
 70
8
 71
3
 72
8
 73
4
 74
0
 40
0
 40
0
 40
0
 40
0
 40
1
 40
1
 40
1
 40
1
 10
121.692311
 20
242.470259
 30
0.0
 10
121.678809
 20
243.486453
 30
0.0
 10
121.391926
 20
244.297388
 30
0.0
 10
120.831661
 20
244.903067
 30
0.0
  0
SPLINE
  5
16a
100
AcDbEntity
  8
Ebene_1
 62
4
100
AcDbSpline
 70
8
 71
3
 72
8
 73
4
 74
0
 40
0
 40
0
 40
0
 40
0
 40
1
 40
1
 40
1
 40
1
 10
120.831661
 20
244.903067
 30
0.0
 10
120.278144
 20
245.508745
 30
0.0
 10
119.542372
 20
245.811584
 30
0.0
 10
118.624344
 20
245.811584
 30
0.0
  0
SPLINE
  5
16b
100
AcDbEntity
  8
Ebene_1
 62
4
100
AcDbSpline
 70
8
 71
3
 72
8
 73
4
 74
0
 40
0
 40
0
 40
0
 40
0
 40
1
 40
1
 40
1
 40
1
 10
118.624344
 20
245.811584
 30
0.0
 10
117.584813
 20
245.811584
 30
0.0
 10
116.751162
 20
245.518840
 30
0.0
 10
116.123392
 20
244.933351
 30
0.0
  0
SPLINE
  5
16c
100
AcDbEntity
  8
Ebene_1
 62
4
100
AcDbSpline
 70
8
 71
3
 72
8
 73
4
 74
0
 40
0
 40
0
 40
0
 40
0
 40
1
 40
1
 40
1
 40
1
 10
116.123392
 20
244.933351
 30
0.0
 10
115.502370
 20
244.347862
 30
0.0
 10
115.144610
 20
243.523466
 30
0.0
 10
115.050110
 20
242.460165
 30
0.0
  0
LWPOLYLINE
  5
16d
100
AcDbEntity
  8
Ebene_1
 62
4
100
AcDbPolyline
 90
1
 70
1
 10
123.555368
 20
241.925149
 30
0.0
  0
SPLINE
  5
16e
100
AcDbEntity
  8
Ebene_1
 62
4
100
AcDbSpline
 70
8
 71
3
 72
8
 73
4
 74
0
 40
0
 40
0
 40
0
 40
0
 40
1
 40
1
 40
1
 40
1
 10
133.184532
 20
245.377515
 30
0.0
 10
132.975277
 20
245.498650
 30
0.0
 10
132.745771
 20
245.586137
 30
0.0
 10
132.496014
 20
245.639975
 30
0.0
  0
SPLINE
  5
16f
100
AcDbEntity
  8
Ebene_1
 62
4
100
AcDbSpline
 70
8
 71
3
 72
8
 73
4
 74
0
 40
0
 40
0
 40
0
 40
0
 40
1
 40
1
 40
1
 40
1
 10
132.496014
 20
245.639975
 30
0.0
 10
132.253007
 20
245.700543
 30
0.0
 10
131.982997
 20
245.730827
 30
0.0
 10
131.685986
 20
245.730827
 30
0.0
  0
SPLINE
  5
170
100
AcDbEntity
  8
Ebene_1
 62
4
100
AcDbSpline
 70
8
 71
3
 72
8
 73
4
 74
0
 40
0
 40
0
 40
0
 40
0
 40
1
 40
1
 40
1
 40
1
 10
131.685986
 20
245.730827
 30
0.0
 10
130.632957
 20
245.730827
 30
0.0
 10
129.822933
 20
245.387609
 30
0.0
 10
129.255915
 20
244.701174
 30
0.0
  0
SPLINE
  5
171
100
AcDbEntity
  8
Ebene_1
 62
4
100
AcDbSpline
 70
8
 71
3
 72
8
 73
4
 74
0
 40
0
 40
0
 40
0
 40
0
 40
1
 40
1
 40
1
 40
1
 10
129.255915
 20
244.701174
 30
0.0
 10
128.695646
 20
244.021468
 30
0.0
 10
128.415511
 20
243.042289
 30
0.0
 10
128.415511
 20
241.763635
 30
0.0
  0
LWPOLYLINE
  5
172
100
AcDbEntity
  8
Ebene_1
 62
4
100
AcDbPolyline
 90
2
 70
0
 10
115.050110
 20
242.460165
 30
0.0
 10
121.692311
 20
242.470259
 30
0.0
  0
SPLINE
  5
173
100
AcDbEntity
  8
Ebene_1
 62
4
100
AcDbSpline
 70
8
 71
3
 72
8
 73
4
 74
0
 40
0
 40
0
 40
0
 40
0
 40
1
 40
1
 40
1
 40
1
 10
128.415511
 20
245.357325
 30
0.0
 10
128.807026
 20
246.043761
 30
0.0
 10
129.316667
 20
246.551857
 30
0.0
 10
129.944433
 20
246.881615
 30
0.0
  0
SPLINE
  5
174
100
AcDbEntity
  8
Ebene_1
 62
4
100
AcDbSpline
 70
8
 71
3
 72
8
 73
4
 74
0
 40
0
 40
0
 40
0
 40
0
 40
1
 40
1
 40
1
 40
1
 10
129.944433
 20
246.881615
 30
0.0
 10
130.572203
 20
247.218103
 30
0.0
 10
131.334977
 20
247.386347
 30
0.0
 10
132.232754
 20
247.386347
 30
0.0
  0
SPLINE
  5
175
100
AcDbEntity
  8
Ebene_1
 62
4
100
AcDbSpline
 70
8
 71
3
 72
8
 73
4
 74
0
 40
0
 40
0
 40
0
 40
0
 40
1
 40
1
 40
1
 40
1
 10
132.232754
 20
247.386347
 30
0.0
 10
132.361011
 20
247.386347
 30
0.0
 10
132.502765
 20
247.376253
 30
0.0
 10
132.658017
 20
247.356063
 30
0.0
  0
SPLINE
  5
176
100
AcDbEntity
  8
Ebene_1
 62
4
100
AcDbSpline
 70
8
 71
3
 72
8
 73
4
 74
0
 40
0
 40
0
 40
0
 40
0
 40
1
 40
1
 40
1
 40
1
 10
132.658017
 20
247.356063
 30
0.0
 10
132.813274
 20
247.342604
 30
0.0
 10
132.985404
 20
247.319050
 30
0.0
 10
133.174409
 20
247.285401
 30
0.0
  0
LWPOLYLINE
  5
177
100
AcDbEntity
  8
Ebene_1
 62
4
100
AcDbPolyline
 90
6
 70
0
 10
128.415511
 20
241.763635
 30
0.0
 10
128.415511
 20
235.807799
 30
0.0
 10
126.542331
 20
235.807799
 30
0.0
 10
126.542331
 20
247.113792
 30
0.0
 10
128.415511
 20
247.113792
 30
0.0
 10
128.415511
 20
245.357325
 30
0.0
  0
SPLINE
  5
178
100
AcDbEntity
  8
Ebene_1
 62
6
100
AcDbSpline
 70
8
 71
3
 72
8
 73
4
 74
0
 40
0
 40
0
 40
0
 40
0
 40
1
 40
1
 40
1
 40
1
 10
298.354810
 20
41.488100
 30
0.0
 10
298.354820
 20
26.192981
 30
0.0
 10
292.278865
 20
11.524308
 30
0.0
 10
281.463586
 20
0.709022
 30
0.0
  0
SPLINE
  5
179
100
AcDbEntity
  8
Ebene_1
 62
6
100
AcDbSpline
 70
8
 71
3
 72
8
 73
4
 74
0
 40
0
 40
0
 40
0
 40
0
 40
1
 40
1
 40
1
 40
1
 10
281.463586
 20
0.709022
 30
0.0
 10
270.648308
 20
-10.106264
 30
0.0
 10
255.979639
 20
-16.182229
 30
0.0
 10
240.684520
 20
-16.182230
 30
0.0
  0
SPLINE
  5
17a
100
AcDbEntity
  8
Ebene_1
 62
6
100
AcDbSpline
 70
8
 71
3
 72
8
 73
4
 74
0
 40
0
 40
0
 40
0
 40
0
 40
1
 40
1
 40
1
 40
1
 10
240.684520
 20
-16.182230
 30
0.0
 10
225.389401
 20
-16.182229
 30
0.0
 10
210.720732
 20
-10.106264
 30
0.0
 10
199.905454
 20
0.709022
 30
0.0
  0
SPLINE
  5
17b
100
AcDbEntity
  8
Ebene_1
 62
6
100
AcDbSpline
 70
8
 71
3
 72
8
 73
4
 74
0
 40
0
 40
0
 40
0
 40
0
 40
1
 40
1
 40
1
 40
1
 10
199.905454
 20
0.709022
 30
0.0
 10
189.090175
 20
11.524308
 30
0.0
 10
183.014220
 20
26.192981
 30
0.0
 10
183.014230
 20
41.488100
 30
0.0
  0
SPLINE
  5
17c
100
AcDbEntity
  8
Ebene_1
 62
6
100
AcDbSpline
 70
8
 71
3
 72
8
 73
4
 74
0
 40
0
 40
0
 40
0
 40
0
 40
1
 40
1
 40
1
 40
1
 10
183.014230
 20
41.488100
 30
0.0
 10
183.014232
 20
73.338521
 30
0.0
 10
208.834099
 20
99.158388
 30
0.0
 10
240.684520
 20
99.158390
 30
0.0
  0
SPLINE
  5
17d
100
AcDbEntity
  8
Ebene_1
 62
6
100
AcDbSpline
 70
8
 71
3
 72
8
 73
4
 74
0
 40
0
 40
0
 40
0
 40
0
 40
1
 40
1
 40
1
 40
1
 10
240.684520
 20
99.158390
 30
0.0
 10
272.534941
 20
99.158388
 30
0.0
 10
298.354808
 20
73.338521
 30
0.0
 10
298.354810
 20
41.488100
 30
0.0
  0
LWPOLYLINE
  5
17e
100
AcDbEntity
  8
Ebene_1
 62
4
100
AcDbPolyline
 90
2
 70
0
 10
133.174409
 20
247.285401
 30
0.0
 10
133.184532
 20
245.377515
 30
0.0
  0
LWPOLYLINE
  5
17f
100
AcDbEntity
  8
Ebene_1
 62
6
100
AcDbPolyline
 90
1
 70
1
 10
298.354810
 20
41.488100
 30
0.0
  0
LWPOLYLINE
  5
180
100
AcDbEntity
  8
Ebene_1
 62
6
100
AcDbPolyline
 90
4
 70
1
 10
22.755115
 20
164.873432
 30
0.0
 10
42.614244
 20
164.873432
 30
0.0
 10
42.614244
 20
161.014306
 30
0.0
 10
22.755115
 20
161.014306
 30
0.0
  0
LWPOLYLINE
  5
181
100
AcDbEntity
  8
Ebene_1
 62
6
100
AcDbPolyline
 90
4
 70
1
 10
122.754808
 20
164.873432
 30
0.0
 10
142.613937
 20
164.873432
 30
0.0
 10
142.613937
 20
161.014306
 30
0.0
 10
122.754808
 20
161.014306
 30
0.0
  0
LWPOLYLINE
  5
182
100
AcDbEntity
  8
Ebene_1
 62
6
100
AcDbPolyline
 90
4
 70
1
 10
180.755110
 20
164.873432
 30
0.0
 10
200.614239
 20
164.873432
 30
0.0
 10
200.614239
 20
161.014306
 30
0.0
 10
180.755110
 20
161.014306
 30
0.0
  0
LWPOLYLINE
  5
183
100
AcDbEntity
  8
Ebene_1
 62
6
100
AcDbPolyline
 90
4
 70
1
 10
280.754803
 20
164.873432
 30
0.0
 10
300.613932
 20
164.873432
 30
0.0
 10
300.613932
 20
161.014306
 30
0.0
 10
280.754803
 20
161.014306
 30
0.0
  0
LWPOLYLINE
  5
184
100
AcDbEntity
  8
Ebene_1
 62
6
100
AcDbPolyline
 90
4
 70
1
 10
22.755115
 20
211.562004
 30
0.0
 10
42.614244
 20
211.562004
 30
0.0
 10
42.614244
 20
207.702878
 30
0.0
 10
22.755115
 20
207.702878
 30
0.0
  0
LWPOLYLINE
  5
185
100
AcDbEntity
  8
Ebene_1
 62
6
100
AcDbPolyline
 90
4
 70
1
 10
122.754808
 20
211.562004
 30
0.0
 10
142.613937
 20
211.562004
 30
0.0
 10
142.613937
 20
207.702878
 30
0.0
 10
122.754808
 20
207.702878
 30
0.0
  0
LWPOLYLINE
  5
186
100
AcDbEntity
  8
Ebene_1
 62
6
100
AcDbPolyline
 90
4
 70
1
 10
180.755110
 20
211.562004
 30
0.0
 10
200.614239
 20
211.562004
 30
0.0
 10
200.614239
 20
207.702878
 30
0.0
 10
180.755110
 20
207.702878
 30
0.0
  0
LWPOLYLINE
  5
187
100
AcDbEntity
  8
Ebene_1
 62
6
100
AcDbPolyline
 90
4
 70
1
 10
280.754803
 20
211.562004
 30
0.0
 10
300.613932
 20
211.562004
 30
0.0
 10
300.613932
 20
207.702878
 30
0.0
 10
280.754803
 20
207.702878
 30
0.0
  0
ENDSEC
  0
SECTION
  2
OBJECTS
  0
DICTIONARY
  5
C
330
0
100
AcDbDictionary
  3
ACAD_GROUP
350
D
  3
ACAD_MLINESTYLE
350
17
  0
DICTIONARY
  5
D
330
C
100
AcDbDictionary
  0
DICTIONARY
  5
1A
330
C
100
AcDbDictionary
  0
DICTIONARY
  5
17
330
C
100
AcDbDictionary
  3
STANDARD
350
18
  0
DICTIONARY
  5
19
330
C
100
AcDbDictionary
  0
ENDSEC
  0
EOF
