<?xml version="1.0" encoding="UTF-8" standalone="no"?>
<svg
   xmlns:dc="http://purl.org/dc/elements/1.1/"
   xmlns:cc="http://creativecommons.org/ns#"
   xmlns:rdf="http://www.w3.org/1999/02/22-rdf-syntax-ns#"
   xmlns:svg="http://www.w3.org/2000/svg"
   xmlns="http://www.w3.org/2000/svg"
   xmlns:sodipodi="http://sodipodi.sourceforge.net/DTD/sodipodi-0.dtd"
   xmlns:inkscape="http://www.inkscape.org/namespaces/inkscape"
   version="1.1"
   width="496.7mm"
   height="348.7mm"
   viewBox=" 0 0 1759.962077 1235.552197"
   id="svg2185"
   sodipodi:docname="luefter_fix.svg"
   inkscape:version="0.92.2 2405546, 2018-03-11">
  <metadata
     id="metadata2191">
    <rdf:RDF>
      <cc:Work
         rdf:about="">
        <dc:format>image/svg+xml</dc:format>
        <dc:type
           rdf:resource="http://purl.org/dc/dcmitype/StillImage" />
        <dc:title></dc:title>
      </cc:Work>
    </rdf:RDF>
  </metadata>
  <defs
     id="defs2189" />
  <sodipodi:namedview
     pagecolor="#ffffff"
     bordercolor="#666666"
     borderopacity="1"
     objecttolerance="10"
     gridtolerance="10"
     guidetolerance="10"
     inkscape:pageopacity="0"
     inkscape:pageshadow="2"
     inkscape:window-width="1920"
     inkscape:window-height="1024"
     id="namedview2187"
     showgrid="false"
     inkscape:measure-start="677.215,615.515"
     inkscape:measure-end="676.228,644.144"
     inkscape:zoom="0.35813974"
     inkscape:cx="750.79936"
     inkscape:cy="561.87677"
     inkscape:window-x="0"
     inkscape:window-y="0"
     inkscape:window-maximized="1"
     inkscape:current-layer="svg2185"
     inkscape:document-units="mm" />
  <!-- Front-->
  <g
     transform="translate(22.5000185, 22.5000185) "
     id="g2163">
    <polygon
       style="stroke:#000000; fill:none; stroke-width:0.90000074"
       points="0, 0 111.968596, 0 111.968596, 14.17324 223.937192, 14.17324 223.937192, 0 335.90578800000003, 0 335.90578800000003, 14.17324 447.874384, 14.17324 447.874384, 0 559.84298, 0 559.84298, 124.01585 545.66974, 124.01585 545.66974, 248.0317 559.84298, 248.0317 559.84298, 347.24438 545.66974, 347.24438 545.66974, 471.26023 559.84298, 471.26023 559.84298, 595.27608 447.874384, 595.27608 447.874384, 581.10284 335.90578800000003, 581.10284 335.90578800000003, 595.27608 223.937192, 595.27608 223.937192, 581.10284 111.968596, 581.10284 111.968596, 595.27608 0, 595.27608 0, 471.26023 14.17324, 471.26023 14.17324, 347.24438 0, 347.24438 0, 248.0317 14.17324, 248.0317 14.17324, 124.01585 0, 124.01585 "
       id="polygon2161" />
  </g>
  <!-- Back-->
  <g
     transform="translate(582.3429985, 22.5000185) "
     id="g2167">
    <polygon
       style="stroke:#000000; fill:none; stroke-width:0.90000074"
       points="0, 0 111.968596, 0 111.968596, 14.17324 223.937192, 14.17324 223.937192, 0 335.90578800000003, 0 335.90578800000003, 14.17324 447.874384, 14.17324 447.874384, 0 559.84298, 0 559.84298, 124.01585 545.66974, 124.01585 545.66974, 248.0317 559.84298, 248.0317 559.84298, 347.24438 545.66974, 347.24438 545.66974, 471.26023 559.84298, 471.26023 559.84298, 595.27608 447.874384, 595.27608 447.874384, 581.10284 335.90578800000003, 581.10284 335.90578800000003, 595.27608 223.937192, 595.27608 223.937192, 581.10284 111.968596, 581.10284 111.968596, 595.27608 0, 595.27608 0, 471.26023 14.17324, 471.26023 14.17324, 347.24438 0, 347.24438 0, 248.0317 14.17324, 248.0317 14.17324, 124.01585 0, 124.01585 "
       id="polygon2165" />
  </g>
  <!-- Left-->
  <g
     transform="translate(1142.1859785000001, 22.5000185) "
     id="g2171">
    <polygon
       style="stroke:#000000; fill:none; stroke-width:0.90000074"
       points="14.17324, 0 124.01585, 0 124.01585, 14.17324 248.0317, 14.17324 248.0317, 0 347.24438, 0 347.24438, 14.17324 471.26023, 14.17324 471.26023, 0 581.10284, 0 581.10284, 124.01585 595.27608, 124.01585 595.27608, 248.0317 581.10284, 248.0317 581.10284, 347.24438 595.27608, 347.24438 595.27608, 471.26023 581.10284, 471.26023 581.10284, 595.27608 471.26023, 595.27608 471.26023, 581.10284 347.24438, 581.10284 347.24438, 595.27608 248.0317, 595.27608 248.0317, 581.10284 124.01585, 581.10284 124.01585, 595.27608 14.17324, 595.27608 14.17324, 471.26023 0, 471.26023 0, 347.24438 14.17324, 347.24438 14.17324, 248.0317 0, 248.0317 0, 124.01585 14.17324, 124.01585 "
       id="polygon2169" />
  </g>
  <!-- Right-->
  <g
     transform="translate(1142.1859785000001, 617.7760985) "
     id="g2175">
    <polygon
       style="stroke:#000000; fill:none; stroke-width:0.90000074"
       points="14.17324, 0 124.01585, 0 124.01585, 14.17324 248.0317, 14.17324 248.0317, 0 347.24438, 0 347.24438, 14.17324 471.26023, 14.17324 471.26023, 0 581.10284, 0 581.10284, 124.01585 595.27608, 124.01585 595.27608, 248.0317 581.10284, 248.0317 581.10284, 347.24438 595.27608, 347.24438 595.27608, 471.26023 581.10284, 471.26023 581.10284, 595.27608 471.26023, 595.27608 471.26023, 581.10284 347.24438, 581.10284 347.24438, 595.27608 248.0317, 595.27608 248.0317, 581.10284 124.01585, 581.10284 124.01585, 595.27608 14.17324, 595.27608 14.17324, 471.26023 0, 471.26023 0, 347.24438 14.17324, 347.24438 14.17324, 248.0317 0, 248.0317 0, 124.01585 14.17324, 124.01585 "
       id="polygon2173" />
  </g>
  <!-- Top-->
  <g
     transform="translate(22.5000185, 617.7760985) "
     id="g2179">
    <polygon
       style="stroke:#000000; fill:none; stroke-width:0.90000074"
       points="14.17324, 14.17324 111.968596, 14.17324 111.968596, 0 223.937192, 0 223.937192, 14.17324 335.90578800000003, 14.17324 335.90578800000003, 0 447.874384, 0 447.874384, 14.17324 545.66974, 14.17324 545.66974, 124.01585 559.84298, 124.01585 559.84298, 248.0317 545.66974, 248.0317 545.66974, 347.24438 559.84298, 347.24438 559.84298, 471.26023 545.66974, 471.26023 545.66974, 581.10284 447.874384, 581.10284 447.874384, 595.27608 335.90578800000003, 595.27608 335.90578800000003, 581.10284 223.937192, 581.10284 223.937192, 595.27608 111.968596, 595.27608 111.968596, 581.10284 14.17324, 581.10284 14.17324, 471.26023 0, 471.26023 0, 347.24438 14.17324, 347.24438 14.17324, 248.0317 0, 248.0317 0, 124.01585 14.17324, 124.01585 "
       id="polygon2177" />
  </g>
  <!-- Bottom-->
  <g
     transform="translate(582.3429985, 617.7760985) "
     id="g2183">
    <polygon
       style="stroke:#000000; fill:none; stroke-width:0.90000074"
       points="14.17324, 14.17324 111.968596, 14.17324 111.968596, 0 223.937192, 0 223.937192, 14.17324 335.90578800000003, 14.17324 335.90578800000003, 0 447.874384, 0 447.874384, 14.17324 545.66974, 14.17324 545.66974, 124.01585 559.84298, 124.01585 559.84298, 248.0317 545.66974, 248.0317 545.66974, 347.24438 559.84298, 347.24438 559.84298, 471.26023 545.66974, 471.26023 545.66974, 581.10284 447.874384, 581.10284 447.874384, 595.27608 335.90578800000003, 595.27608 335.90578800000003, 581.10284 223.937192, 581.10284 223.937192, 595.27608 111.968596, 595.27608 111.968596, 581.10284 14.17324, 581.10284 14.17324, 471.26023 0, 471.26023 0, 347.24438 14.17324, 347.24438 14.17324, 248.0317 0, 248.0317 0, 124.01585 14.17324, 124.01585 "
       id="polygon2181" />
  </g>
  <path
     inkscape:connector-curvature="0"
     style="opacity:1;fill:none;fill-opacity:1;stroke:#ff00ff;stroke-width:1.3226527;stroke-miterlimit:4;stroke-dasharray:none;stroke-opacity:1"
     d="m 767.25645,114.38972 h 190.01608 v 73.08686 H 767.25645 Z"
     id="rect892" />
  <g
     id="g858"
     transform="matrix(3.54331,0,0,3.54331,521.94704,464.01737)">
    <g
       transform="translate(-56.233078,6.1471991)"
       id="g848">
      <ellipse
         style="opacity:1;fill:none;fill-opacity:1;stroke:#ff00ff;stroke-width:0.06622121;stroke-miterlimit:4;stroke-dasharray:none;stroke-opacity:1"
         id="path815"
         cx="88.27829"
         cy="116.92101"
         rx="1.9668895"
         ry="1.9668894" />
      <ellipse
         style="opacity:1;fill:none;fill-opacity:1;stroke:#ff00ff;stroke-width:0.06622121;stroke-miterlimit:4;stroke-dasharray:none;stroke-opacity:1"
         id="path815-3"
         cx="88.27829"
         cy="50.921001"
         rx="1.9668895"
         ry="1.9668894" />
      <ellipse
         style="opacity:1;fill:none;fill-opacity:1;stroke:#ff00ff;stroke-width:0.06622121;stroke-miterlimit:4;stroke-dasharray:none;stroke-opacity:1"
         id="path815-6"
         cx="216.278"
         cy="50.921001"
         rx="1.9668895"
         ry="1.9668894" />
      <ellipse
         style="opacity:1;fill:none;fill-opacity:1;stroke:#ff00ff;stroke-width:0.06622121;stroke-miterlimit:4;stroke-dasharray:none;stroke-opacity:1"
         id="path815-7"
         cx="216.278"
         cy="116.92101"
         rx="1.9668895"
         ry="1.9668894" />
    </g>
    <rect
       y="67.129639"
       x="42.106499"
       height="45.877136"
       width="107.87714"
       id="rect850"
       style="opacity:1;fill:none;fill-opacity:1;stroke:#ff00ff;stroke-width:0.12286572;stroke-miterlimit:4;stroke-dasharray:none;stroke-opacity:1" />
  </g>
  <path
     inkscape:connector-curvature="0"
     style="opacity:1;fill:none;fill-opacity:1;stroke:#ff00ff;stroke-width:0.56487638;stroke-miterlimit:4;stroke-dasharray:none;stroke-opacity:1"
     d="M 506.76522,915.41413 A 204.34372,204.34372 0 0 1 302.42151,1119.7579 204.34372,204.34372 0 0 1 98.077793,915.41413 204.34372,204.34372 0 0 1 302.42151,711.07042 204.34372,204.34372 0 0 1 506.76522,915.41413 Z"
     id="path894" />
  <g
     transform="matrix(0.02197267,0,0,0.02197267,1057.1442,65.307612)"
     id="g28">
    <g
       aria-label="Ottersauger"
       style="font-style:normal;font-weight:normal;font-size:2730.66674805px;line-height:0;font-family:sans-serif;letter-spacing:0px;word-spacing:0px;fill:none;fill-opacity:1;stroke:#00ffff;stroke-width:42.66666412;stroke-opacity:1"
       id="text898">
      <path
         inkscape:connector-curvature="0"
         d="m -41582.348,4486.1733 q -293.333,0 -466.666,218.6667 -172,218.6666 -172,596 0,376 172,594.6667 173.333,218.6666 466.666,218.6666 293.334,0 464,-218.6666 172,-218.6667 172,-594.6667 0,-377.3334 -172,-596 -170.666,-218.6667 -464,-218.6667 z m 0,-218.6667 q 418.667,0 669.334,281.3334 250.666,280 250.666,752 0,470.6667 -250.666,752 -250.667,280 -669.334,280 -420,0 -672,-280 -250.666,-280 -250.666,-752 0,-472 250.666,-752 252,-281.3334 672,-281.3334 z"
         style="font-size:2730.66674805px;line-height:0;fill:none;stroke:#00ffff;stroke-width:42.66666412;stroke-opacity:1"
         id="path924" />
      <path
         inkscape:connector-curvature="0"
         d="M -40009.014,4376.8399 V 4800.84 h 505.333 v 190.6666 h -505.333 v 810.6667 q 0,182.6667 49.333,234.6667 50.667,52 204,52 h 252 v 205.3333 h -252 q -284,0 -392,-105.3333 -108,-106.6667 -108,-386.6667 v -810.6667 h -180 V 4800.84 h 180 v -424.0001 z"
         style="font-size:2730.66674805px;line-height:0;fill:none;stroke:#00ffff;stroke-width:42.66666412;stroke-opacity:1"
         id="path926" />
      <path
         inkscape:connector-curvature="0"
         d="M -38937.014,4376.8399 V 4800.84 h 505.333 v 190.6666 h -505.333 v 810.6667 q 0,182.6667 49.333,234.6667 50.667,52 204,52 h 252 v 205.3333 h -252 q -284,0 -392,-105.3333 -108,-106.6667 -108,-386.6667 v -810.6667 h -180 V 4800.84 h 180 v -424.0001 z"
         style="font-size:2730.66674805px;line-height:0;fill:none;stroke:#00ffff;stroke-width:42.66666412;stroke-opacity:1"
         id="path928" />
      <path
         inkscape:connector-curvature="0"
         d="m -36830.347,5486.1733 v 120 h -1128 q 16,253.3334 152,386.6667 137.333,132 381.333,132 141.333,0 273.333,-34.6667 133.334,-34.6666 264,-104 v 232 q -132,56 -270.666,85.3334 -138.667,29.3333 -281.334,29.3333 -357.333,0 -566.666,-208 -208,-208 -208,-562.6667 0,-366.6667 197.333,-581.3333 198.667,-216 534.667,-216 301.333,0 476,194.6666 176,193.3334 176,526.6667 z m -245.334,-72 q -2.666,-201.3333 -113.333,-321.3333 -109.333,-120 -290.667,-120 -205.333,0 -329.333,116 -122.667,116 -141.333,326.6666 z"
         style="font-size:2730.66674805px;line-height:0;fill:none;stroke:#00ffff;stroke-width:42.66666412;stroke-opacity:1"
         id="path930" />
      <path
         inkscape:connector-curvature="0"
         d="m -35562.347,5030.1733 q -41.334,-24 -90.667,-34.6667 -48,-12 -106.667,-12 -208,0 -320,136 -110.666,134.6667 -110.666,388 v 786.6667 h -246.667 V 4800.84 h 246.667 v 232 q 77.333,-136 201.333,-201.3334 124,-66.6666 301.333,-66.6666 25.334,0 56,4 30.667,2.6666 68,9.3333 z"
         style="font-size:2730.66674805px;line-height:0;fill:none;stroke:#00ffff;stroke-width:42.66666412;stroke-opacity:1"
         id="path932" />
      <path
         inkscape:connector-curvature="0"
         d="m -34350.347,4844.84 v 232 q -104,-53.3334 -216,-80 -112,-26.6667 -232,-26.6667 -182.667,0 -274.667,56 -90.667,56 -90.667,168 0,85.3333 65.334,134.6667 65.333,48 262.666,92 l 84,18.6666 q 261.334,56 370.667,158.6667 110.667,101.3334 110.667,284 0,208 -165.334,329.3334 -164,121.3333 -452,121.3333 -120,0 -250.666,-24 -129.334,-22.6667 -273.334,-69.3333 v -253.3334 q 136,70.6667 268,106.6667 132,34.6667 261.334,34.6667 173.333,0 266.666,-58.6667 93.334,-60 93.334,-168 0,-100 -68,-153.3333 -66.667,-53.3334 -294.667,-102.6667 l -85.333,-20 q -228,-48 -329.334,-146.6667 -101.333,-100 -101.333,-273.3333 0,-210.6667 149.333,-325.3334 149.334,-114.6666 424,-114.6666 136,0 256,20 120,20 221.334,60 z"
         style="font-size:2730.66674805px;line-height:0;fill:none;stroke:#00ffff;stroke-width:42.66666412;stroke-opacity:1"
         id="path934" />
      <path
         inkscape:connector-curvature="0"
         d="m -33199.681,5543.5067 q -297.333,0 -412,68 -114.666,68 -114.666,232 0,130.6666 85.333,208 86.667,76 234.667,76 204,0 326.666,-144 124,-145.3334 124,-385.3334 v -54.6666 z m 489.334,-101.3334 v 852 h -245.334 v -226.6666 q -84,136 -209.333,201.3333 -125.333,64 -306.667,64 -229.333,0 -365.333,-128 -134.667,-129.3333 -134.667,-345.3333 0,-252 168,-380.0001 169.334,-128 504,-128 h 344 v -24 q 0,-169.3333 -112,-261.3333 -110.666,-93.3333 -312,-93.3333 -128,0 -249.333,30.6666 -121.333,30.6667 -233.333,92 V 4868.84 q 134.666,-52 261.333,-77.3334 126.667,-26.6666 246.667,-26.6666 324,0 484,168 160,168 160,509.3333 z"
         style="font-size:2730.66674805px;line-height:0;fill:none;stroke:#00ffff;stroke-width:42.66666412;stroke-opacity:1"
         id="path936" />
      <path
         inkscape:connector-curvature="0"
         d="m -32229.014,5704.84 v -904 h 245.334 v 894.6667 q 0,212 82.666,318.6666 82.667,105.3334 248,105.3334 198.667,0 313.334,-126.6667 116,-126.6667 116,-345.3333 V 4800.84 h 245.333 v 1493.3333 h -245.333 V 6064.84 q -89.334,136 -208,202.6667 -117.334,65.3333 -273.334,65.3333 -257.333,0 -390.666,-160 -133.334,-160 -133.334,-468 z m 617.334,-940 z"
         style="font-size:2730.66674805px;line-height:0;fill:none;stroke:#00ffff;stroke-width:42.66666412;stroke-opacity:1"
         id="path938" />
      <path
         inkscape:connector-curvature="0"
         d="m -29487.681,5530.1733 q 0,-266.6667 -110.666,-413.3333 -109.334,-146.6667 -308,-146.6667 -197.334,0 -308,146.6667 -109.334,146.6666 -109.334,413.3333 0,265.3334 109.334,412 110.666,146.6667 308,146.6667 198.666,0 308,-146.6667 110.666,-146.6666 110.666,-412 z m 245.334,578.6667 q 0,381.3333 -169.334,566.6667 -169.333,186.6667 -518.666,186.6667 -129.334,0 -244,-20 -114.667,-18.6667 -222.667,-58.6667 V 6544.84 q 108,58.6667 213.333,86.6667 105.334,28 214.667,28 241.333,0 361.333,-126.6667 120,-125.3333 120,-380 v -121.3333 q -76,132 -194.666,197.3333 -118.667,65.3333 -284,65.3333 -274.667,0 -442.667,-209.3333 -168,-209.3333 -168,-554.6667 0,-346.6667 168,-556 168,-209.3333 442.667,-209.3333 165.333,0 284,65.3333 118.666,65.3333 194.666,197.3333 V 4800.84 h 245.334 z"
         style="font-size:2730.66674805px;line-height:0;fill:none;stroke:#00ffff;stroke-width:42.66666412;stroke-opacity:1"
         id="path940" />
      <path
         inkscape:connector-curvature="0"
         d="m -27459.681,5486.1733 v 120 h -1128 q 16,253.3334 152,386.6667 137.333,132 381.333,132 141.334,0 273.334,-34.6667 133.333,-34.6666 264,-104 v 232 q -132,56 -270.667,85.3334 -138.667,29.3333 -281.333,29.3333 -357.334,0 -566.667,-208 -208,-208 -208,-562.6667 0,-366.6667 197.333,-581.3333 198.667,-216 534.667,-216 301.333,0 476,194.6666 176,193.3334 176,526.6667 z m -245.333,-72 q -2.667,-201.3333 -113.334,-321.3333 -109.333,-120 -290.666,-120 -205.334,0 -329.334,116 -122.666,116 -141.333,326.6666 z"
         style="font-size:2730.66674805px;line-height:0;fill:none;stroke:#00ffff;stroke-width:42.66666412;stroke-opacity:1"
         id="path942" />
      <path
         inkscape:connector-curvature="0"
         d="m -26191.681,5030.1733 q -41.333,-24 -90.667,-34.6667 -48,-12 -106.666,-12 -208,0 -320,136 -110.667,134.6667 -110.667,388 v 786.6667 h -246.667 V 4800.84 h 246.667 v 232 q 77.333,-136 201.333,-201.3334 124,-66.6666 301.334,-66.6666 25.333,0 56,4 30.666,2.6666 68,9.3333 z"
         style="font-size:2730.66674805px;line-height:0;fill:none;stroke:#00ffff;stroke-width:42.66666412;stroke-opacity:1"
         id="path944" />
    </g>
    <g
       aria-label="It saugs otter!"
       style="font-style:normal;font-weight:normal;font-size:1592.88891602px;line-height:1.25;font-family:sans-serif;letter-spacing:0px;word-spacing:0px;fill:none;fill-opacity:1;stroke:#00ffff;stroke-width:42.66666412;stroke-opacity:1"
       id="text902">
      <path
         inkscape:connector-curvature="0"
         d="m -39784.624,7141.9819 h 157.111 v 1161.2222 h -157.111 z"
         style="font-size:1592.88891602px;fill:none;stroke:#00ffff;stroke-width:42.66666412;stroke-opacity:1"
         id="path947" />
      <path
         inkscape:connector-curvature="0"
         d="m -39179.513,7184.7596 v 247.3334 h 294.778 v 111.2222 h -294.778 v 472.8889 q 0,106.5556 28.778,136.8889 29.556,30.3333 119,30.3333 h 147 v 119.7778 h -147 q -165.666,0 -228.666,-61.4444 -63,-62.2223 -63,-225.5556 v -472.8889 h -105 V 7432.093 h 105 v -247.3334 z"
         style="font-size:1592.88891602px;fill:none;stroke:#00ffff;stroke-width:42.66666412;stroke-opacity:1"
         id="path949" />
      <path
         inkscape:connector-curvature="0"
         d="m -37633.29,7457.7596 v 135.3334 q -60.667,-31.1111 -126,-46.6667 -65.334,-15.5555 -135.334,-15.5555 -106.555,0 -160.222,32.6666 -52.889,32.6667 -52.889,98 0,49.7778 38.111,78.5556 38.111,28 153.223,53.6666 l 49,10.8889 q 152.444,32.6667 216.222,92.5556 64.555,59.1111 64.555,165.6667 0,121.3333 -96.444,192.1111 -95.667,70.7778 -263.667,70.7778 -70,0 -146.222,-14 -75.444,-13.2223 -159.444,-40.4445 v -147.7778 q 79.333,41.2223 156.333,62.2223 77,20.2222 152.444,20.2222 101.111,0 155.556,-34.2222 54.444,-35 54.444,-98 0,-58.3334 -39.666,-89.4445 -38.889,-31.1111 -171.889,-59.8889 l -49.778,-11.6666 q -133,-28.0001 -192.111,-85.5556 -59.111,-58.3333 -59.111,-159.4445 0,-122.8888 87.111,-189.7777 87.111,-66.8889 247.333,-66.8889 79.334,0 149.334,11.6666 70,11.6667 129.111,35 z"
         style="font-size:1592.88891602px;fill:none;stroke:#00ffff;stroke-width:42.66666412;stroke-opacity:1"
         id="path951" />
      <path
         inkscape:connector-curvature="0"
         d="m -36962.068,7865.3152 q -173.445,0 -240.333,39.6667 -66.889,39.6666 -66.889,135.3333 0,76.2222 49.777,121.3333 50.556,44.3334 136.889,44.3334 119,0 190.556,-84 72.333,-84.7778 72.333,-224.7778 v -31.8889 z m 285.444,-59.1111 v 497 h -143.111 v -132.2222 q -49,79.3333 -122.111,117.4444 -73.111,37.3334 -178.889,37.3334 -133.778,0 -213.111,-74.6667 -78.555,-75.4445 -78.555,-201.4445 0,-147 98,-221.6666 98.777,-74.6667 294,-74.6667 h 200.666 v -14 q 0,-98.7778 -65.333,-152.4444 -64.556,-54.4445 -182,-54.4445 -74.667,0 -145.445,17.8889 -70.777,17.8889 -136.111,53.6667 v -132.2223 q 78.556,-30.3333 152.445,-45.1111 73.889,-15.5555 143.889,-15.5555 189,0 282.333,98 93.333,98 93.333,297.1111 z"
         style="font-size:1592.88891602px;fill:none;stroke:#00ffff;stroke-width:42.66666412;stroke-opacity:1"
         id="path953" />
      <path
         inkscape:connector-curvature="0"
         d="M -36395.846,7959.4263 V 7432.093 h 143.111 v 521.8889 q 0,123.6666 48.222,185.8889 48.223,61.4444 144.667,61.4444 115.889,0 182.778,-73.8889 67.667,-73.8889 67.667,-201.4444 V 7432.093 h 143.111 v 871.1111 h -143.111 v -133.7778 q -52.112,79.3334 -121.334,118.2222 -68.444,38.1112 -159.444,38.1112 -150.111,0 -227.889,-93.3334 -77.778,-93.3333 -77.778,-273 z m 360.111,-548.3333 z"
         style="font-size:1592.88891602px;fill:none;stroke:#00ffff;stroke-width:42.66666412;stroke-opacity:1"
         id="path955" />
      <path
         inkscape:connector-curvature="0"
         d="m -34796.735,7857.5374 q 0,-155.5555 -64.555,-241.1111 -63.778,-85.5555 -179.667,-85.5555 -115.111,0 -179.666,85.5555 -63.778,85.5556 -63.778,241.1111 0,154.7778 63.778,240.3334 64.555,85.5555 179.666,85.5555 115.889,0 179.667,-85.5555 64.555,-85.5556 64.555,-240.3334 z m 143.112,337.5556 q 0,222.4444 -98.778,330.5555 -98.778,108.8889 -302.556,108.8889 -75.444,0 -142.333,-11.6666 -66.889,-10.8889 -129.889,-34.2222 v -139.2223 q 63,34.2222 124.444,50.5556 61.445,16.3333 125.223,16.3333 140.777,0 210.777,-73.8889 70,-73.1111 70,-221.6666 v -70.7778 q -44.333,77 -113.555,115.1111 -69.222,38.1111 -165.667,38.1111 -160.222,0 -258.222,-122.1111 -98,-122.1111 -98,-323.5556 0,-202.2222 98,-324.3333 98,-122.1111 258.222,-122.1111 96.445,0 165.667,38.1111 69.222,38.1111 113.555,115.1111 V 7432.093 h 143.112 z"
         style="font-size:1592.88891602px;fill:none;stroke:#00ffff;stroke-width:42.66666412;stroke-opacity:1"
         id="path957" />
      <path
         inkscape:connector-curvature="0"
         d="m -33803.513,7457.7596 v 135.3334 q -60.666,-31.1111 -126,-46.6667 -65.333,-15.5555 -135.333,-15.5555 -106.555,0 -160.222,32.6666 -52.889,32.6667 -52.889,98 0,49.7778 38.111,78.5556 38.111,28 153.222,53.6666 l 49,10.8889 q 152.445,32.6667 216.223,92.5556 64.555,59.1111 64.555,165.6667 0,121.3333 -96.444,192.1111 -95.667,70.7778 -263.667,70.7778 -70,0 -146.222,-14 -75.445,-13.2223 -159.445,-40.4445 v -147.7778 q 79.334,41.2223 156.334,62.2223 77,20.2222 152.444,20.2222 101.111,0 155.556,-34.2222 54.444,-35 54.444,-98 0,-58.3334 -39.667,-89.4445 -38.888,-31.1111 -171.888,-59.8889 l -49.778,-11.6666 q -133,-28.0001 -192.111,-85.5556 -59.111,-58.3333 -59.111,-159.4445 0,-122.8888 87.111,-189.7777 87.111,-66.8889 247.333,-66.8889 79.333,0 149.333,11.6666 70,11.6667 129.111,35 z"
         style="font-size:1592.88891602px;fill:none;stroke:#00ffff;stroke-width:42.66666412;stroke-opacity:1"
         id="path959" />
      <path
         inkscape:connector-curvature="0"
         d="m -32683.513,7532.4263 q -115.111,0 -182,90.2222 -66.888,89.4445 -66.888,245.7778 0,156.3334 66.111,246.5556 66.889,89.4444 182.777,89.4444 114.334,0 181.223,-90.2222 66.889,-90.2222 66.889,-245.7778 0,-154.7778 -66.889,-245 -66.889,-91 -181.223,-91 z m 0,-121.3333 q 186.667,0 293.223,121.3333 106.555,121.3333 106.555,336 0,213.8889 -106.555,336 -106.556,121.3334 -293.223,121.3334 -187.444,0 -294,-121.3334 -105.777,-122.1111 -105.777,-336 0,-214.6667 105.777,-336 106.556,-121.3333 294,-121.3333 z"
         style="font-size:1592.88891602px;fill:none;stroke:#00ffff;stroke-width:42.66666412;stroke-opacity:1"
         id="path961" />
      <path
         inkscape:connector-curvature="0"
         d="m -31905.735,7184.7596 v 247.3334 h 294.778 v 111.2222 h -294.778 v 472.8889 q 0,106.5556 28.778,136.8889 29.556,30.3333 119,30.3333 h 147 v 119.7778 h -147 q -165.667,0 -228.667,-61.4444 -63,-62.2223 -63,-225.5556 v -472.8889 h -105 V 7432.093 h 105 v -247.3334 z"
         style="font-size:1592.88891602px;fill:none;stroke:#00ffff;stroke-width:42.66666412;stroke-opacity:1"
         id="path963" />
      <path
         inkscape:connector-curvature="0"
         d="m -31280.402,7184.7596 v 247.3334 h 294.778 v 111.2222 h -294.778 v 472.8889 q 0,106.5556 28.778,136.8889 29.556,30.3333 119,30.3333 h 147 v 119.7778 h -147 q -165.667,0 -228.667,-61.4444 -63,-62.2223 -63,-225.5556 v -472.8889 h -105 V 7432.093 h 105 v -247.3334 z"
         style="font-size:1592.88891602px;fill:none;stroke:#00ffff;stroke-width:42.66666412;stroke-opacity:1"
         id="path965" />
      <path
         inkscape:connector-curvature="0"
         d="m -30051.512,7831.8708 v 70 h -658 q 9.333,147.7777 88.667,225.5555 80.111,77 222.444,77 82.444,0 159.444,-20.2222 77.778,-20.2222 154,-60.6667 v 135.3334 q -77,32.6666 -157.888,49.7777 -80.889,17.1112 -164.112,17.1112 -208.444,0 -330.555,-121.3334 -121.333,-121.3333 -121.333,-328.2222 0,-213.8889 115.111,-339.1111 115.889,-126 311.889,-126 175.777,0 277.666,113.5555 102.667,112.7778 102.667,307.2223 z m -143.111,-42 q -1.556,-117.4445 -66.111,-187.4445 -63.778,-70 -169.556,-70 -119.778,0 -192.111,67.6667 -71.556,67.6666 -82.444,190.5555 z"
         style="font-size:1592.88891602px;fill:none;stroke:#00ffff;stroke-width:42.66666412;stroke-opacity:1"
         id="path967" />
      <path
         inkscape:connector-curvature="0"
         d="m -29311.845,7565.8708 q -24.112,-14 -52.889,-20.2223 -28,-7 -62.223,-7 -121.333,0 -186.666,79.3334 -64.556,78.5555 -64.556,226.3333 v 458.8889 h -143.889 V 7432.093 h 143.889 v 135.3333 q 45.111,-79.3333 117.445,-117.4444 72.333,-38.8889 175.777,-38.8889 14.778,0 32.667,2.3333 17.889,1.5556 39.667,5.4445 z"
         style="font-size:1592.88891602px;fill:none;stroke:#00ffff;stroke-width:42.66666412;stroke-opacity:1"
         id="path969" />
      <path
         inkscape:connector-curvature="0"
         d="m -29069.957,8105.6485 h 157.889 v 197.5556 h -157.889 z m 0,-963.6666 h 157.889 v 509.4444 l -15.555,277.6667 h -126 l -16.334,-277.6667 z"
         style="font-size:1592.88891602px;fill:none;stroke:#00ffff;stroke-width:42.66666412;stroke-opacity:1"
         id="path971" />
    </g>
  </g>
</svg>
